<svg width="720" height="632" viewBox="0 0 720 632" fill="none" xmlns="http://www.w3.org/2000/svg">
<path d="M318.775 54.0962C142.981 54.0962 0.472229 134.994 0.472229 234.785C0.472229 334.577 258.326 829.523 541.094 543.771C876.296 602.903 637.078 334.577 637.078 234.785C637.078 134.994 500.233 -106.249 318.775 54.0962Z" fill="#00B2E3" fill-opacity="0.2113"/>
<path d="M275.703 454.727C278.615 454.727 280.977 452.351 280.977 449.421V311.531C280.977 309.585 279.918 307.796 278.22 306.868C276.521 305.939 274.453 306.021 272.831 307.081L243.161 326.465L220.116 295.617C218.366 293.274 215.06 292.801 212.732 294.563C210.404 296.324 209.935 299.65 211.685 301.992L234.931 333.108C238.136 337.399 244.153 338.471 248.627 335.547L270.43 321.302V449.419C270.429 452.351 272.79 454.727 275.703 454.727V454.727Z" fill="#023E8A"/>
<path d="M443.594 421.603C440.681 421.603 438.32 423.979 438.32 426.909V486.388H280.976V472.033C280.976 469.103 278.615 466.727 275.703 466.727C272.79 466.727 270.429 469.103 270.429 472.033V491.694C270.429 494.624 272.79 497 275.703 497H443.594C446.506 497 448.868 494.624 448.868 491.694V426.909C448.868 423.979 446.506 421.603 443.594 421.603V421.603Z" fill="#023E8A"/>
<path d="M527.169 258.84L493.008 232.719C490.69 230.946 487.381 231.399 485.618 233.733C483.856 236.066 484.307 239.395 486.626 241.167L520.505 267.073L476.136 326.465L446.466 307.081C444.845 306.021 442.776 305.939 441.077 306.868C439.378 307.796 438.32 309.585 438.32 311.531V348.675C438.32 351.605 440.681 353.981 443.594 353.981C446.506 353.981 448.868 351.605 448.868 348.675V321.302L470.671 335.547C475.145 338.471 481.161 337.4 484.367 333.109L529.15 273.163C532.508 268.668 531.619 262.242 527.169 258.84Z" fill="#023E8A"/>
<path d="M539.401 137.853C538.054 135.256 534.869 134.248 532.286 135.602C508.867 147.892 484.103 157.671 458.621 164.71C456.63 162.593 453.821 161.264 450.703 161.264H437.527C431.576 161.264 426.73 166.084 426.623 172.047C382.39 180.142 337.609 180.142 293.376 172.047C293.269 166.084 288.424 161.264 282.472 161.264H269.297C266.179 161.264 263.37 162.593 261.379 164.71C235.898 157.671 211.133 147.892 187.713 135.602C185.13 134.247 181.946 135.256 180.599 137.853C179.252 140.451 180.254 143.657 182.836 145.012C206.855 157.616 232.253 167.645 258.384 174.879V202.616C258.384 204.313 258.78 205.914 259.465 207.351L192.127 258.84C187.677 262.243 186.789 268.668 190.147 273.163L198.181 283.918C199.217 285.305 200.799 286.036 202.401 286.036C203.503 286.036 204.616 285.689 205.565 284.971C207.893 283.21 208.362 279.884 206.612 277.542L198.791 267.073L268.763 213.57C268.941 213.579 269.117 213.598 269.297 213.598H282.472C288.177 213.598 292.866 209.168 293.339 203.549H295.349L311.176 229.256C321.646 246.262 339.766 256.414 359.648 256.414C379.53 256.414 397.65 246.262 408.12 229.256L423.947 203.549H426.66C427.133 209.168 431.822 213.598 437.527 213.598H450.569L468.728 227.482C469.681 228.211 470.803 228.564 471.915 228.564C473.507 228.564 475.08 227.841 476.118 226.468C477.88 224.135 477.43 220.806 475.11 219.033L460.347 207.744C461.155 206.212 461.617 204.468 461.617 202.616V174.886C487.748 167.652 513.145 157.617 537.164 145.012C539.747 143.657 540.748 140.451 539.401 137.853V137.853ZM282.839 202.616C282.839 202.819 282.675 202.985 282.473 202.985H269.298C269.251 202.985 269.207 202.974 269.165 202.958C269.16 202.956 269.154 202.953 269.148 202.951C269.021 202.893 268.931 202.765 268.931 202.616V172.245C268.931 172.042 269.095 171.877 269.297 171.877H282.472C282.674 171.877 282.838 172.042 282.838 172.245V202.616H282.839ZM399.153 223.667C390.62 237.526 375.852 245.801 359.648 245.801C343.444 245.801 328.676 237.526 320.143 223.667L314.999 215.311C329.605 219.313 344.626 221.318 359.648 221.318C374.67 221.318 389.691 219.314 404.297 215.312L399.153 223.667ZM423.719 192.936C420.183 192.936 416.962 194.741 415.1 197.765L412.785 201.525C378.444 213.755 340.853 213.755 306.512 201.525L304.197 197.765C302.336 194.741 299.114 192.936 295.578 192.936H293.387V182.822C315.505 186.757 337.753 188.732 360.001 188.732C382.249 188.732 404.497 186.757 426.615 182.822V192.936H423.719ZM437.161 202.616V172.245C437.161 172.042 437.325 171.877 437.527 171.877H450.702C450.904 171.877 451.069 172.042 451.069 172.245V202.616C451.069 202.819 450.904 202.985 450.702 202.985H437.527C437.325 202.985 437.161 202.819 437.161 202.616Z" fill="#023E8A"/>
<path d="M461.594 380.075C457.162 377.558 453.789 374.076 451.285 369.431C449.669 366.433 446.582 364.581 443.214 364.581C443.185 364.581 443.156 364.581 443.128 364.581C439.748 364.613 436.679 366.514 435.118 369.542C432.922 373.802 429.533 377.146 424.757 379.765C421.681 381.452 419.862 384.695 420.011 388.229C420.16 391.743 422.233 394.802 425.421 396.211C429.843 398.165 432.992 401.283 435.05 405.745C436.507 408.905 439.563 410.919 443.024 411.002C443.099 411.003 443.173 411.004 443.247 411.004C446.682 411.004 449.789 409.111 451.393 406.024C453.7 401.583 456.883 398.425 461.124 396.371C464.188 394.887 466.159 391.844 466.27 388.428C466.383 384.978 464.591 381.778 461.594 380.075V380.075ZM443.349 398.806C440.641 394.045 436.88 390.328 432.127 387.712C436.806 384.738 440.532 381.021 443.245 376.617C446.122 381.255 449.823 385.076 454.287 388.017C449.82 390.635 446.156 394.251 443.349 398.806ZM456.55 386.809C456.548 386.809 456.547 386.809 456.546 386.81C456.547 386.81 456.548 386.809 456.55 386.809Z" fill="#023E8A"/>
<path d="M515.588 422.716C511.732 420.526 508.799 417.497 506.62 413.454C505.079 410.595 502.135 408.829 498.921 408.829C498.894 408.829 498.866 408.829 498.84 408.829C495.615 408.859 492.686 410.673 491.196 413.563C489.293 417.255 486.349 420.157 482.194 422.435C479.259 424.045 477.524 427.139 477.667 430.51C477.809 433.864 479.787 436.783 482.831 438.128C486.639 439.812 489.352 442.499 491.125 446.342C492.516 449.36 495.433 451.283 498.739 451.361C498.81 451.363 498.88 451.364 498.951 451.364C502.229 451.364 505.191 449.559 506.72 446.616C508.718 442.77 511.471 440.038 515.136 438.262C518.06 436.846 519.942 433.941 520.048 430.681C520.154 427.391 518.445 424.339 515.588 422.716V422.716ZM499.06 438.818C496.802 435.138 493.816 432.185 490.138 429.992C493.747 427.564 496.696 424.622 498.949 421.202C501.315 424.809 504.253 427.845 507.728 430.27C504.271 432.446 501.37 435.307 499.06 438.818Z" fill="#023E8A"/>
<path d="M245.371 394.275C240.421 391.463 236.656 387.576 233.862 382.393C232.165 379.245 228.916 377.318 225.367 377.342C221.849 377.374 218.655 379.353 217.029 382.506C214.572 387.274 210.784 391.013 205.452 393.938C202.25 395.694 200.357 399.071 200.513 402.749C200.668 406.407 202.825 409.591 206.143 411.057C211.113 413.253 214.653 416.758 216.965 421.772C218.481 425.059 221.66 427.155 225.262 427.24C225.339 427.242 225.417 427.243 225.494 427.243C229.072 427.243 232.307 425.272 233.978 422.057C236.562 417.082 240.13 413.544 244.887 411.239C248.075 409.694 250.127 406.527 250.243 402.972C250.359 399.38 248.492 396.048 245.371 394.275V394.275ZM225.588 415.405C222.494 409.63 218.025 405.213 212.263 402.239C217.946 398.786 222.383 394.358 225.489 389.039C228.813 394.637 233.211 399.176 238.598 402.566C233.189 405.562 228.824 409.87 225.588 415.405Z" fill="#023E8A"/>
</svg>
