<svg width="720" height="631" viewBox="0 0 720 631" fill="none" xmlns="http://www.w3.org/2000/svg">
<path d="M379.886 191.291L380.154 191.817L379.886 192.303V191.291Z" fill="#00B2E3"/>
<path d="M401.574 332.436C405.466 331.725 409.032 329.915 411.795 327.252C414.557 324.588 416.384 321.198 417.029 317.535C417.674 313.872 417.107 310.111 415.405 306.758C413.702 303.406 410.945 300.62 407.503 298.776L401.882 295.729L424.651 258.81C425.938 256.733 426.774 254.439 427.113 252.059C427.451 249.679 427.286 247.26 426.625 244.94C425.964 242.62 424.821 240.445 423.261 238.539C421.702 236.633 419.756 235.033 417.536 233.831L372.472 209.474C370.253 208.27 367.802 207.487 365.26 207.17C362.717 206.853 360.133 207.008 357.655 207.627C355.177 208.245 352.853 209.315 350.817 210.775C348.781 212.235 347.072 214.057 345.789 216.135L323.02 253.115L317.386 250.073C313.959 248.205 310.003 247.362 306.05 247.659C302.096 247.957 298.335 249.379 295.269 251.735C292.204 254.091 289.983 257.269 288.903 260.842C287.823 264.414 287.936 268.211 289.227 271.721C271.853 273.41 255.153 278.925 240.493 287.815C225.832 296.706 213.629 308.719 204.88 322.872L118.861 462.326C114.932 468.701 113.869 476.275 115.905 483.384C117.941 490.493 122.909 496.553 129.718 500.233L269.927 576.013C276.734 579.69 284.823 580.686 292.415 578.783C300.007 576.879 306.481 572.231 310.413 565.86L396.427 426.39C405.146 412.221 410.157 396.322 411.052 379.992C411.946 363.662 408.698 347.366 401.574 332.436V332.436ZM390.616 289.639L334.286 259.188L357.055 222.269C357.922 220.873 359.345 219.855 361.012 219.439C362.679 219.023 364.454 219.242 365.949 220.049L411.013 244.406C412.505 245.218 413.591 246.55 414.036 248.11C414.48 249.671 414.246 251.333 413.385 252.732L390.616 289.639ZM403.394 317.643C402.526 319.039 401.103 320.057 399.437 320.473C397.77 320.889 395.994 320.67 394.5 319.864L304.371 271.139C303.572 270.768 302.863 270.247 302.287 269.609C301.712 268.972 301.282 268.23 301.025 267.431C300.767 266.631 300.688 265.791 300.791 264.962C300.894 264.132 301.178 263.332 301.625 262.609C302.072 261.887 302.672 261.258 303.389 260.761C304.106 260.264 304.924 259.91 305.793 259.721C306.661 259.532 307.562 259.512 308.44 259.662C309.317 259.811 310.152 260.128 310.894 260.592L401.022 309.312C402.516 310.123 403.605 311.455 404.051 313.017C404.497 314.579 404.262 316.243 403.4 317.643H403.394ZM385.161 420.301L299.141 559.771C296.934 563.343 293.303 565.949 289.045 567.017C284.787 568.085 280.251 567.527 276.431 565.466L136.24 489.681C132.425 487.614 129.641 484.215 128.501 480.229C127.36 476.243 127.956 471.996 130.157 468.421L216.14 328.951C224.73 315.053 237.077 303.516 251.939 295.501C266.801 287.486 283.656 283.274 300.808 283.289L385.066 328.806C393.661 342.706 398.195 358.48 398.212 374.542C398.229 390.603 393.727 406.385 385.161 420.301V420.301Z" fill="#023E8A"/>
<path d="M257.73 407.683L283.749 365.497C285.976 362.031 287.443 358.184 288.065 354.181C288.687 350.179 288.451 346.1 287.37 342.184C286.29 338.267 284.387 334.592 281.772 331.371C279.157 328.151 275.884 325.451 272.142 323.428C268.4 321.405 264.265 320.101 259.979 319.59C255.693 319.08 251.341 319.374 247.177 320.455C243.014 321.537 239.122 323.384 235.73 325.889C232.337 328.394 229.512 331.506 227.418 335.045L201.394 377.231C197.263 384.214 196.225 392.436 198.505 400.127C200.785 407.818 206.199 414.364 213.583 418.356C220.967 422.347 229.729 423.466 237.985 421.469C246.24 419.473 253.329 414.523 257.724 407.683H257.73ZM246.464 401.577C243.814 405.658 239.563 408.606 234.621 409.789C229.679 410.973 224.439 410.298 220.021 407.91C215.604 405.521 212.361 401.609 210.986 397.01C209.611 392.412 210.214 387.492 212.666 383.304L238.69 341.118C239.962 339.023 241.664 337.184 243.698 335.707C245.732 334.231 248.057 333.145 250.541 332.514C253.025 331.882 255.618 331.717 258.17 332.027C260.723 332.338 263.185 333.118 265.414 334.323C267.643 335.527 269.595 337.133 271.158 339.047C272.722 340.961 273.865 343.146 274.523 345.476C275.18 347.805 275.339 350.233 274.99 352.621C274.641 355.008 273.791 357.307 272.488 359.385L246.464 401.577Z" fill="#023E8A"/>
<path d="M23.4661 256.938C24.2988 255.262 25.1679 253.615 26.0649 251.977C60.4619 189.274 140.727 150.332 276.292 170.943C353.266 183.202 385.93 138.236 417.553 92.1786C418.094 91.3836 418.634 90.5887 419.184 89.7938C452.3 41.4952 485.085 -6.9376 567.381 9.16198C654.618 23.528 708.609 97.3025 717.121 176.067C717.224 177.024 717.318 177.992 717.404 178.949C722.201 230.016 707.866 282.893 671.072 322.811C648.847 346.917 617.22 359.722 584.542 359.32C574.702 359.129 564.87 359.889 555.169 361.59C553.029 361.982 550.952 362.413 548.931 362.902C507.324 372.814 488.209 402.284 476.528 438.247C476.254 439.099 475.98 439.952 475.715 440.814C448.9 526.579 461.673 646.957 314.763 629.248C183.313 619.154 86.6852 543.224 39.1701 455.62C38.6991 454.739 38.2284 453.858 37.7668 452.977C24.7066 428.67 15.366 402.395 10.0829 375.103C9.78484 373.571 9.51465 372.039 9.26288 370.506C2.47635 329.822 6.76865 290.277 23.4661 256.938Z" fill="#00B2E3" fill-opacity="0.2118"/>
<path d="M34.8104 168.704C34.4799 154.5 29.5323 143.024 41.3493 129.684C53.1664 116.343 69.3979 112.184 77.6036 120.394C85.8093 128.604 78.3292 143.857 71.0647 159.414C47.4693 209.944 35.5501 200.488 34.8104 168.704Z" fill="#00B2E3" fill-opacity="0.2118"/>
<path d="M617.83 490.835C609.172 496.988 603.4 505.641 592.104 501.875C580.808 498.108 574.011 487.059 576.922 477.196C579.834 467.333 591.176 466.892 602.648 466.157C639.911 463.767 637.201 477.07 617.83 490.835Z" fill="#00B2E3" fill-opacity="0.2118"/>
<path d="M469.807 157.381C469.132 156.748 468.197 156.438 467.206 156.52C466.216 156.601 465.251 157.068 464.525 157.817L461.784 160.645L459.238 158.253C458.564 157.62 457.628 157.31 456.638 157.392C455.647 157.473 454.683 157.94 453.957 158.689C453.23 159.438 452.802 160.408 452.765 161.386C452.729 162.364 453.087 163.269 453.762 163.902L456.308 166.293L453.566 169.121C452.84 169.87 452.412 170.84 452.375 171.818C452.339 172.795 452.697 173.7 453.371 174.334C454.046 174.967 454.981 175.277 455.972 175.196C456.962 175.114 457.927 174.647 458.653 173.898L461.394 171.071L463.937 173.459C464.612 174.093 465.547 174.403 466.538 174.321C467.528 174.239 468.492 173.772 469.219 173.023C469.945 172.274 470.373 171.304 470.41 170.327C470.447 169.349 470.088 168.444 469.414 167.81L466.87 165.422L469.612 162.594C470.338 161.845 470.766 160.875 470.803 159.898C470.84 158.92 470.481 158.015 469.807 157.381V157.381Z" fill="#023E8A"/>
<path d="M513.832 177.115C515.844 179.005 518.454 180.19 521.331 180.52C524.209 180.85 527.224 180.31 529.996 178.968C532.768 177.627 535.172 175.544 536.905 172.983C538.638 170.422 539.621 167.498 539.73 164.581C539.839 161.664 539.069 158.885 537.518 156.595C535.967 154.305 533.704 152.608 531.015 151.717C528.327 150.826 525.333 150.782 522.414 151.59C519.494 152.398 516.779 154.022 514.612 156.258C511.706 159.255 509.992 163.136 509.845 167.047C509.699 170.959 511.133 174.58 513.832 177.115V177.115ZM530.267 160.163C531.273 161.108 531.936 162.364 532.171 163.771C532.406 165.178 532.202 166.673 531.586 168.067C530.97 169.462 529.969 170.693 528.71 171.605C527.451 172.517 525.99 173.069 524.512 173.191C523.034 173.313 521.605 172.999 520.406 172.29C519.208 171.581 518.293 170.508 517.778 169.207C517.263 167.906 517.17 166.435 517.512 164.98C517.854 163.526 518.615 162.153 519.698 161.035C521.152 159.536 523.082 158.602 525.064 158.438C527.046 158.275 528.917 158.895 530.267 160.163V160.163Z" fill="#023E8A"/>
<path d="M589.205 248.842C586.379 248.323 583.358 248.669 580.524 249.838C577.691 251.006 575.172 252.944 573.287 255.407C571.401 257.869 570.233 260.746 569.931 263.673C569.629 266.599 570.206 269.445 571.589 271.849C572.972 274.253 575.099 276.108 577.701 277.18C580.303 278.251 583.263 278.491 586.207 277.869C589.152 277.246 591.947 275.79 594.241 273.683C596.535 271.577 598.224 268.915 599.095 266.034C599.673 264.122 599.877 262.159 599.693 260.26C599.509 258.36 598.941 256.561 598.023 254.964C597.104 253.368 595.853 252.005 594.34 250.955C592.827 249.904 591.082 249.186 589.205 248.842V248.842ZM582.605 270.69C581.193 270.43 579.941 269.749 579.009 268.732C578.077 267.716 577.505 266.411 577.367 264.981C577.229 263.552 577.53 262.062 578.233 260.701C578.936 259.339 580.008 258.168 581.314 257.333C582.621 256.499 584.103 256.04 585.573 256.014C587.044 255.988 588.436 256.396 589.575 257.187C590.713 257.978 591.547 259.116 591.97 260.457C592.393 261.798 592.387 263.282 591.952 264.722C591.368 266.654 590.055 268.367 588.302 269.487C586.549 270.606 584.5 271.039 582.605 270.69Z" fill="#023E8A"/>
<path d="M594.624 199.011C594.29 198.697 593.889 198.46 593.442 198.312C592.996 198.164 592.514 198.109 592.024 198.149C591.533 198.19 591.044 198.325 590.584 198.548C590.124 198.771 589.702 199.076 589.343 199.447L586.601 202.274L584.056 199.883C583.381 199.25 582.446 198.94 581.455 199.021C580.465 199.103 579.5 199.57 578.774 200.319C578.048 201.068 577.619 202.038 577.583 203.016C577.546 203.993 577.905 204.899 578.579 205.532L581.125 207.923L578.387 210.748C577.661 211.497 577.232 212.467 577.195 213.444C577.159 214.422 577.517 215.327 578.192 215.961C578.866 216.594 579.802 216.904 580.792 216.822C581.783 216.741 582.747 216.274 583.473 215.525L586.211 212.7L588.755 215.089C589.429 215.722 590.364 216.032 591.355 215.951C592.345 215.869 593.31 215.402 594.036 214.653C594.762 213.904 595.191 212.934 595.227 211.956C595.264 210.979 594.906 210.074 594.231 209.44L591.688 207.052L594.429 204.224C595.155 203.475 595.584 202.505 595.62 201.527C595.657 200.55 595.299 199.645 594.624 199.011V199.011Z" fill="#023E8A"/>
<path d="M540.98 294.432C540.306 293.799 539.37 293.489 538.38 293.571C537.389 293.652 536.425 294.119 535.699 294.868L532.96 297.693L530.417 295.304C530.088 294.971 529.686 294.716 529.235 294.553C528.785 294.391 528.294 294.324 527.794 294.357C527.293 294.39 526.792 294.523 526.32 294.747C525.848 294.971 525.416 295.282 525.048 295.661C524.681 296.04 524.386 296.479 524.181 296.953C523.975 297.428 523.864 297.927 523.854 298.42C523.844 298.914 523.934 299.394 524.121 299.829C524.307 300.265 524.585 300.648 524.938 300.956L527.489 303.352L524.751 306.176C524.025 306.926 523.596 307.896 523.56 308.873C523.523 309.851 523.881 310.756 524.556 311.389C525.23 312.023 526.166 312.333 527.156 312.251C528.147 312.169 529.111 311.703 529.837 310.954L532.576 308.129L535.122 310.52C535.805 311.117 536.73 311.397 537.701 311.301C538.672 311.205 539.613 310.741 540.324 310.007C541.036 309.274 541.462 308.327 541.514 307.368C541.566 306.409 541.238 305.513 540.601 304.868L538.055 302.477L540.793 299.653C541.154 299.281 541.444 298.851 541.649 298.387C541.853 297.924 541.967 297.435 541.985 296.95C542.002 296.465 541.922 295.993 541.75 295.561C541.578 295.129 541.316 294.745 540.98 294.432V294.432Z" fill="#023E8A"/>
</svg>
