<svg width="977" height="984" viewBox="0 0 977 984" fill="none" xmlns="http://www.w3.org/2000/svg">
<path d="M809.401 558.461C686.17 754.532 628.211 984 404.701 984C181.191 984 0 793.479 0 558.461C0 323.442 201.961 231.859 404.701 132.923C1063.21 -188.431 1085.14 119.744 809.401 558.461Z" fill="#00B2E3" fill-opacity="0.211765"/>
<path d="M631.711 128.588V833.786C631.711 836.272 630.723 838.656 628.966 840.414C627.208 842.172 624.824 843.16 622.338 843.16H133.928C131.442 843.16 129.058 842.172 127.3 840.414C125.543 838.656 124.555 836.272 124.555 833.786V128.588C124.555 126.101 125.543 123.717 127.3 121.959C129.058 120.201 131.442 119.214 133.928 119.214H622.338C624.824 119.214 627.208 120.201 628.966 121.959C630.723 123.717 631.711 126.101 631.711 128.588Z" fill="#DBD8D7"/>
<path d="M631.711 247.636V833.945C631.701 835.166 631.451 836.373 630.974 837.497C630.498 838.62 629.805 839.639 628.934 840.495C628.064 841.351 627.033 842.027 625.901 842.484C624.769 842.941 623.559 843.171 622.338 843.16H133.928C132.707 843.171 131.497 842.941 130.365 842.484C129.233 842.027 128.202 841.351 127.332 840.495C126.461 839.639 125.768 838.62 125.292 837.497C124.815 836.373 124.565 835.166 124.555 833.945V247.636H631.711Z" fill="#00B3E3"/>
<path d="M275.186 211.49C254.298 216.421 232.913 218.937 211.451 218.989C189.619 219.026 167.857 216.51 146.609 211.49C146.111 211.483 145.635 211.285 145.279 210.937C144.93 210.586 144.734 210.111 144.735 209.616V185.956C144.735 185.459 144.932 184.982 145.284 184.63C145.635 184.279 146.112 184.081 146.609 184.081H275.186C275.683 184.081 276.16 184.279 276.512 184.63C276.863 184.982 277.061 185.459 277.061 185.956V209.616C277.061 210.113 276.863 210.59 276.512 210.941C276.16 211.293 275.683 211.49 275.186 211.49Z" fill="#CBC8C7"/>
<path opacity="0.7" d="M274.427 188.337C258.053 188.937 236.626 189.48 211.451 189.49C185.779 189.49 163.959 188.946 147.378 188.337C146.942 188.335 146.507 188.303 146.075 188.243C145.738 188.243 145.532 188.121 145.532 188.037V184.372C145.532 184.212 146.356 184.081 147.406 184.081H274.427C275.449 184.081 276.302 184.212 276.302 184.372V188.037C276.274 188.206 275.458 188.337 274.427 188.337Z" fill="white"/>
<path d="M378.016 203.926C396.108 203.926 410.774 189.715 410.774 172.186C410.774 154.656 396.108 140.446 378.016 140.446C359.924 140.446 345.258 154.656 345.258 172.186C345.258 189.715 359.924 203.926 378.016 203.926Z" fill="#CBC8C7"/>
<path opacity="0.7" d="M378.419 193.689C392.302 193.689 403.557 182.752 403.557 169.261C403.557 155.769 392.302 144.833 378.419 144.833C364.536 144.833 353.281 155.769 353.281 169.261C353.281 182.752 364.536 193.689 378.419 193.689Z" fill="white"/>
<path opacity="0.35" d="M321.722 218.577C328.431 218.577 333.87 213.138 333.87 206.428C333.87 199.719 328.431 194.28 321.722 194.28C315.014 194.28 309.575 199.719 309.575 206.428C309.575 213.138 315.014 218.577 321.722 218.577Z" fill="white"/>
<path opacity="0.7" d="M321.722 216.562C327.318 216.562 331.855 212.025 331.855 206.428C331.855 200.832 327.318 196.295 321.722 196.295C316.127 196.295 311.59 200.832 311.59 206.428C311.59 212.025 316.127 216.562 321.722 216.562Z" fill="white"/>
<path d="M377.079 700.986C493.172 700.986 587.284 606.863 587.284 490.757C587.284 374.651 493.172 280.529 377.079 280.529C260.986 280.529 166.874 374.651 166.874 490.757C166.874 606.863 260.986 700.986 377.079 700.986Z" fill="#DBD8D7"/>
<path d="M377.079 701.923C328.23 701.927 280.891 684.992 243.128 654.003C205.365 623.014 179.513 579.888 169.979 531.974C160.444 484.06 167.816 434.321 190.839 391.234C213.862 348.146 251.11 314.375 296.238 295.674C341.367 276.974 391.582 274.501 438.329 288.678C485.076 302.854 525.461 332.802 552.605 373.42C579.748 414.037 591.97 462.811 587.188 511.43C582.406 560.049 560.916 605.506 526.379 640.055C506.821 659.731 483.554 675.33 457.927 685.95C432.299 696.569 404.819 701.999 377.079 701.923V701.923ZM377.079 281.476C261.699 281.476 167.82 375.355 167.82 490.757C167.82 606.159 261.699 700.048 377.079 700.048C492.458 700.048 586.346 606.159 586.346 490.757C586.346 375.355 492.468 281.476 377.079 281.476Z" fill="#E5E2E1"/>
<path d="M377.079 690.599C266.901 690.599 177.268 600.948 177.268 490.757C177.268 380.567 266.901 290.925 377.079 290.925C487.256 290.925 576.898 380.567 576.898 490.757C576.898 600.948 487.285 690.599 377.079 690.599ZM377.079 291.862C267.416 291.862 178.205 381.092 178.205 490.757C178.205 600.423 267.426 689.662 377.079 689.662C486.732 689.662 575.961 600.432 575.961 490.757C575.961 381.083 486.741 291.862 377.079 291.862V291.862Z" fill="#0B1E60"/>
<path d="M376.61 663.762C471.774 663.762 548.92 586.607 548.92 491.432C548.92 396.257 471.774 319.103 376.61 319.103C281.445 319.103 204.299 396.257 204.299 491.432C204.299 586.607 281.445 663.762 376.61 663.762Z" fill="#0B1E60"/>
<path opacity="0.9" d="M605.279 729.914H705.185C707.67 729.914 710.055 730.901 711.812 732.659C713.57 734.417 714.558 736.801 714.558 739.287V806.629C714.558 809.116 713.57 811.5 711.812 813.258C710.055 815.016 707.67 816.003 705.185 816.003H605.279V729.914Z" fill="#DBD8D7"/>
<path d="M605.832 729.914H496.554V816.003H605.832V729.914Z" fill="#0B1E60"/>
<path d="M711.689 318.437C665.992 318.437 622.167 336.592 589.854 368.909C557.541 401.225 539.388 445.055 539.388 490.757C539.388 585.931 616.527 663.087 711.689 663.087C806.852 663.087 884 585.931 884 490.757C884 395.584 806.899 318.437 711.689 318.437ZM741.42 594.47C737.84 595.498 734.208 596.334 730.538 596.973C702.894 601.837 674.443 595.712 651.25 579.901C628.056 564.091 611.954 539.846 606.375 512.334C600.796 484.823 606.181 456.22 621.382 432.621C636.584 409.023 660.4 392.295 687.755 386.004C715.11 379.712 743.84 384.354 767.822 398.94C791.804 413.526 809.142 436.903 816.14 464.089C823.138 491.274 819.244 520.118 805.286 544.473C791.328 568.828 768.412 586.768 741.42 594.47V594.47Z" fill="#000C6F"/>
<path d="M550.842 425.824H537.729C537.212 425.824 536.792 426.244 536.792 426.762V554.875C536.792 555.393 537.212 555.812 537.729 555.812H550.842C551.36 555.812 551.779 555.393 551.779 554.875V426.762C551.779 426.244 551.36 425.824 550.842 425.824Z" fill="white"/>
<path opacity="0.35" d="M435.134 218.577C441.843 218.577 447.281 213.138 447.281 206.428C447.281 199.719 441.843 194.28 435.134 194.28C428.425 194.28 422.987 199.719 422.987 206.428C422.987 213.138 428.425 218.577 435.134 218.577Z" fill="white"/>
<path opacity="0.7" d="M435.134 216.562C440.73 216.562 445.266 212.025 445.266 206.428C445.266 200.832 440.73 196.295 435.134 196.295C429.538 196.295 425.002 200.832 425.002 206.428C425.002 212.025 429.538 216.562 435.134 216.562Z" fill="white"/>
<path opacity="0.7" d="M819.543 490.757C819.545 512.092 813.221 532.947 801.371 550.687C789.521 568.426 772.677 582.253 752.97 590.419C733.262 598.584 711.576 600.722 690.654 596.561C669.732 592.4 650.513 582.127 635.429 567.042C620.344 551.958 610.071 532.738 605.909 511.814C601.747 490.89 603.882 469.201 612.045 449.491C620.208 429.78 634.032 412.933 651.768 401.081C669.505 389.228 690.358 382.901 711.689 382.901C740.292 382.901 767.724 394.264 787.95 414.491C808.176 434.718 819.54 462.151 819.543 490.757V490.757Z" fill="white"/>
<path d="M331.508 357.311C329.858 366.6 330.346 369.328 318.826 370.368C330.149 371.634 330.317 374.493 331.508 383.426C333.092 374.446 332.782 371.756 344.199 370.368C332.689 369.365 333.082 366.61 331.508 357.311Z" fill="white"/>
<path d="M459.916 375.374C458.894 381.158 459.194 382.873 452.015 383.511C459.072 384.298 459.175 386.079 459.916 391.647C460.9 386.023 460.713 384.373 467.827 383.511C460.656 382.873 460.9 381.158 459.916 375.374Z" fill="white"/>
<path d="M495.533 455.943C494.858 459.758 495.055 460.883 490.312 461.314C494.998 461.839 494.998 463.011 495.533 466.685C496.189 462.992 496.058 461.886 500.763 461.314C496.02 460.892 496.179 459.758 495.533 455.943Z" fill="white"/>
<path d="M378.991 576.21C378.4 579.519 378.578 580.494 374.473 580.897C378.503 581.356 378.569 582.368 378.991 585.584C379.553 582.378 379.44 581.422 383.518 580.897C379.412 580.503 379.553 579.519 378.991 576.21Z" fill="white"/>
<path d="M415.404 516.395C414.682 520.473 414.898 521.672 409.827 522.132C414.804 522.685 414.879 523.941 415.404 527.869C416.098 523.922 415.967 522.741 421.028 522.132C415.92 521.682 416.098 520.473 415.404 516.395Z" fill="white"/>
<path d="M291.954 522.132C291.467 524.86 291.608 525.666 288.205 525.966C291.533 526.341 291.579 527.184 291.954 529.809C292.414 527.166 292.329 526.378 295.703 525.966C292.329 525.666 292.414 524.86 291.954 522.132Z" fill="white"/>
<path d="M264.97 450.703C264.586 452.887 264.698 453.515 261.989 453.768C264.651 454.068 264.689 454.705 264.97 456.833C265.345 454.724 265.27 454.096 267.95 453.768C265.251 453.524 265.345 452.924 264.97 450.703Z" fill="white"/>
<path d="M369.618 349.08C368.962 352.83 369.158 353.88 364.556 354.292C369.074 354.798 369.14 355.942 369.618 359.504C370.246 355.923 370.124 354.817 374.679 354.292C370.124 353.889 370.246 352.783 369.618 349.08Z" fill="#F9C400"/>
<path d="M479.158 548.463C478.427 552.531 478.643 553.731 473.591 554.181C478.558 554.734 478.633 555.99 479.158 559.909C479.843 555.972 479.711 554.79 484.716 554.181C479.674 553.731 479.843 552.522 479.158 548.463Z" fill="#F9C400"/>
<path d="M306.867 597.189V597.404L306.773 597.292L306.867 597.189Z" fill="#F9C400"/>
<path opacity="0.9" d="M632.451 788.632H614.83V806.255H632.451V788.632Z" fill="#FD4F00"/>
<path opacity="0.9" d="M650.072 788.632H632.451V806.255H650.072V788.632Z" fill="#0B1E60"/>
<path opacity="0.9" d="M620.848 797.443L623.706 792.484L626.575 797.443L629.433 802.402H623.706H617.989L620.848 797.443Z" fill="#F9C400"/>
<g opacity="0.9">
<path opacity="0.9" d="M624.288 800.593V800.696C624.288 801.099 624.156 801.23 623.753 801.23H623.688C623.285 801.23 623.153 801.099 623.153 800.696V800.621C623.153 800.218 623.285 800.086 623.688 800.086H623.753C624.128 800.058 624.288 800.19 624.288 800.593ZM624.231 795.221L624.109 799.187C624.109 799.374 624.044 799.44 623.847 799.44H623.594C623.397 799.44 623.341 799.374 623.332 799.187L623.228 795.221C623.228 795.025 623.294 794.959 623.482 794.959H623.969C624.128 794.959 624.231 795.071 624.231 795.221Z" fill="#0B1E60"/>
</g>
<path opacity="0.9" d="M645.367 792.147H635.526V792.99H645.367V792.147Z" fill="white"/>
<path opacity="0.9" d="M647.289 795.512H635.526V796.356H647.289V795.512Z" fill="white"/>
<path opacity="0.9" d="M647.092 798.868H635.526V799.712H647.092V798.868Z" fill="white"/>
<path opacity="0.9" d="M646.248 802.233H635.526V803.077H646.248V802.233Z" fill="white"/>
<path d="M511.429 765.872H510.97C508.845 765.711 506.843 764.817 505.304 763.343C503.766 761.87 502.787 759.907 502.534 757.791V729.82H503.94V757.698C504.148 759.564 505.039 761.288 506.442 762.536C507.844 763.785 509.66 764.47 511.537 764.459C513.415 764.449 515.222 763.743 516.611 762.479C518 761.215 518.872 759.482 519.059 757.613V729.82H520.465V757.698C520.221 759.931 519.167 761.997 517.501 763.503C515.836 765.01 513.675 765.853 511.429 765.872V765.872Z" fill="#F9C400"/>
<path d="M570.947 795.465H570.253C563.776 795.062 558.303 788.903 557.515 781.133V729.82H558.921V781.011C559.634 788.032 564.545 793.647 570.337 794.012C576.655 794.434 582.241 788.66 583.047 780.936V729.82H584.453V781.011C583.591 789.307 577.733 795.465 570.947 795.465Z" fill="#00B3E3"/>
<path d="M563.758 764.26H562.774C558.882 764.108 555.203 762.443 552.521 759.619C549.838 756.795 548.365 753.034 548.414 749.139V729.82H549.82V749.139C549.786 752.662 551.125 756.06 553.554 758.611C555.983 761.163 559.31 762.668 562.83 762.807H563.027C563.561 762.807 564.086 762.807 564.611 762.807C568.155 762.697 571.517 761.206 573.979 758.653C576.44 756.1 577.808 752.686 577.789 749.139V729.82H579.195V749.139C579.219 753.053 577.712 756.822 574.995 759.64C572.279 762.458 568.569 764.102 564.657 764.222L563.758 764.26Z" fill="#F9C400"/>
<path d="M537.42 751.164H535.939C533.127 751.164 530.428 751.052 527.794 750.883C522.454 750.533 517.447 748.163 513.791 744.254C510.135 740.345 508.104 735.191 508.111 729.839H509.517C509.506 734.838 511.397 739.655 514.807 743.311C518.217 746.967 522.891 749.188 527.878 749.524C530.493 749.692 533.202 749.786 535.948 749.805C539.698 749.805 543.447 749.739 547.055 749.524C552.05 749.197 556.732 746.98 560.15 743.323C563.568 739.666 565.465 734.844 565.454 729.839H566.86C566.86 735.189 564.827 740.339 561.172 744.247C557.518 748.154 552.515 750.526 547.177 750.883C543.981 751.061 540.71 751.164 537.42 751.164Z" fill="#FD4F00"/>
<path d="M614.09 137.577H475.437V204.863H614.09V137.577Z" fill="#CBC8C7"/>
<path d="M536.023 343.25L543.428 350.655L571.64 322.449H575.052L602.964 350.365L610.894 343.85C603.083 335.888 595.272 327.933 587.462 319.984V315.99H559.662L559.605 319.974L536.023 343.25Z" fill="#DBD8D7"/>
<path d="M528.113 343.175C529.706 344.843 531.309 346.565 532.921 348.34C535.039 350.655 537.064 352.961 539.013 355.23C539.917 354.459 540.778 353.639 541.591 352.774C542.256 352.061 542.856 351.368 543.4 350.693L536.023 343.25C534.728 343.035 533.418 342.919 532.106 342.903C530.77 342.887 529.434 342.978 528.113 343.175Z" fill="#FD5000"/>
<path d="M620.323 344.637C617.905 346.146 615.411 347.796 612.825 349.577C610.641 351.105 608.569 352.633 606.61 354.142C605.163 353.126 603.912 351.855 602.917 350.393L610.847 343.878C612.398 343.65 613.971 343.6 615.533 343.728C617.16 343.845 618.767 344.15 620.323 344.637V344.637Z" fill="#FD5000"/>
<path d="M587.462 313.31H559.502V315.99H587.462V313.31Z" fill="#0B1E60"/>
<path d="M559.502 313.31V278.411H587.462V313.31" fill="white"/>
<path d="M568.819 283.116V278.411H578.182V283.116L574.415 279.367H572.578L568.819 283.116Z" fill="#0B1E60"/>
<path d="M567.807 293.352L567.676 302.83C566.738 302.951 561.471 303.664 559.465 303.664C558.621 303.664 553.138 303.561 549.755 299.267C548.157 297.097 547.311 294.464 547.346 291.768C547.252 289.8 547.008 284.832 550.739 281.345C551.935 280.301 553.326 279.505 554.832 279.003C556.338 278.501 557.929 278.303 559.512 278.42V293.362L567.807 293.352Z" fill="#FD4F00"/>
<path d="M587.462 278.411V293.353H579.139V302.811C579.139 302.811 585.287 303.664 587.48 303.664C588.324 303.664 593.807 303.561 597.191 299.258C598.789 297.087 599.637 294.455 599.609 291.759C599.703 289.79 599.937 284.813 596.207 281.335C595.014 280.295 593.627 279.501 592.126 278.999C590.625 278.497 589.04 278.297 587.462 278.411V278.411Z" fill="#FD4F00"/>
<path d="M573.515 288.759V297.102C573.109 298.66 572.255 300.065 571.059 301.142C570.762 301.39 570.449 301.619 570.122 301.827C569.687 302.103 569.225 302.335 568.744 302.52C568.389 302.647 568.026 302.75 567.657 302.83C567.657 302.83 567.722 298.143 567.722 298.143C567.722 298.143 567.788 293.399 567.788 293.371H572.868V288.778L573.515 288.759Z" fill="#F9C400"/>
<path d="M573.515 288.759V297.102C573.921 298.66 574.774 300.065 575.971 301.142C576.253 301.389 576.55 301.617 576.861 301.827C577.298 302.099 577.759 302.331 578.239 302.52C578.546 302.634 578.858 302.731 579.176 302.811V293.353H574.096V288.759H573.515Z" fill="#F9C400"/>
<path d="M565.295 270.968C565.154 270.208 565.96 269.552 566.232 269.093C568.107 266.44 569.981 263.75 572.69 263.525C575.886 263.262 580.123 266.44 580.123 270.968C580.08 272.927 579.283 274.793 577.899 276.18C576.514 277.566 574.649 278.365 572.69 278.411C569.288 278.336 566.298 275.364 566.307 273.855C566.341 273.427 566.29 272.997 566.157 272.589C565.913 271.718 565.398 271.53 565.295 270.968Z" fill="#F9C400"/>
<path d="M581.341 266.946C581.622 267.34 583.422 270.19 582.063 272.514C581.742 273.018 581.323 273.451 580.83 273.788C580.337 274.125 579.78 274.358 579.195 274.473C578.489 274.634 577.756 274.626 577.054 274.45C576.352 274.275 575.701 273.936 575.155 273.461C574.907 273.277 574.702 273.042 574.551 272.772C574.401 272.502 574.31 272.203 574.283 271.896C574.291 271.471 574.443 271.061 574.715 270.733C574.835 270.804 574.968 270.85 575.107 270.868C575.246 270.885 575.386 270.875 575.521 270.836C575.74 270.768 575.927 270.621 576.046 270.424V270.311C576.12 269.994 576.073 269.659 575.914 269.374V269.374C575.792 269.158 575.558 268.887 575.389 268.934C575.365 268.925 575.339 268.925 575.314 268.934C575.22 269.053 575.086 269.135 574.936 269.164C574.787 269.194 574.631 269.168 574.499 269.093C574.404 269.029 574.329 268.94 574.283 268.835C574.237 268.731 574.221 268.615 574.237 268.502C574.326 268.236 574.376 267.958 574.387 267.677C574.402 267.182 574.289 266.691 574.058 266.253C572.652 266.579 571.207 266.703 569.766 266.618C568.91 266.568 568.061 266.445 567.226 266.253C567.052 266.232 566.885 266.176 566.735 266.087C566.585 265.999 566.455 265.879 566.354 265.737C566.323 265.68 566.298 265.621 566.279 265.559C566.251 265.203 566.297 264.844 566.414 264.507C566.532 264.17 566.719 263.861 566.963 263.6C567.901 262.522 570.516 262.166 571.04 262.1C571.619 262.029 572.202 262.007 572.784 262.034C574.143 262.101 575.477 262.419 576.72 262.972C578.525 263.934 580.091 265.289 581.304 266.937L581.341 266.946Z" fill="#0B1E60"/>
<path d="M570.787 269.918C571.227 269.918 571.584 269.561 571.584 269.121C571.584 268.681 571.227 268.324 570.787 268.324C570.347 268.324 569.991 268.681 569.991 269.121C569.991 269.561 570.347 269.918 570.787 269.918Z" fill="#0B1E60"/>
<path d="M382.468 385.76L374.407 393.822L384.305 403.721L389.319 398.715C389.74 397.123 389.788 395.455 389.46 393.841C388.317 388.488 383.171 386.079 382.468 385.76Z" fill="#F9C400"/>
<path d="M446.569 449.756L438.508 457.817L428.611 447.919L433.625 442.913C435.213 442.483 436.88 442.435 438.49 442.772C443.851 443.916 446.25 449.053 446.569 449.756Z" fill="#F9C400"/>
<path d="M399.255 422.478C399.63 421.99 400.454 422.112 400.895 422.065C403.473 421.747 406.088 421.428 407.672 422.928C409.546 424.681 409.921 428.918 407.222 431.364C406.032 432.398 404.488 432.929 402.915 432.847C401.342 432.765 399.861 432.076 398.786 430.924C396.996 428.862 397.174 425.487 398.074 424.69C398.341 424.475 398.57 424.215 398.749 423.922C399.18 423.256 398.974 422.843 399.255 422.478Z" fill="#F9C400"/>
<path d="M410.24 429.883C410.165 430.258 409.434 432.855 407.315 433.295C406.843 433.371 406.36 433.351 405.895 433.239C405.43 433.126 404.992 432.922 404.607 432.639C404.137 432.301 403.752 431.858 403.482 431.346C403.212 430.833 403.064 430.265 403.051 429.686C403.075 429.198 403.237 428.727 403.519 428.327C404.457 426.79 406.2 426.696 406.238 425.806C406.234 425.563 406.137 425.331 405.966 425.159C405.473 424.332 404.895 423.559 404.241 422.853C403.787 422.335 403.4 421.761 403.088 421.147C403.009 421.032 402.955 420.901 402.929 420.764C402.903 420.627 402.906 420.486 402.938 420.35C402.951 420.301 402.97 420.254 402.994 420.209C403.193 420.003 403.432 419.839 403.696 419.73C403.961 419.62 404.245 419.566 404.532 419.572C405.656 419.572 407.287 420.912 407.615 421.194C407.953 421.504 408.266 421.839 408.553 422.197C409.244 423.029 409.774 423.983 410.118 425.009C410.399 426.139 410.497 427.307 410.408 428.468C410.386 428.943 410.33 429.416 410.24 429.883V429.883Z" fill="#FD4F00"/>
<path d="M402.554 424.718C402.906 424.718 403.191 424.433 403.191 424.081C403.191 423.729 402.906 423.443 402.554 423.443C402.202 423.443 401.917 423.729 401.917 424.081C401.917 424.433 402.202 424.718 402.554 424.718Z" fill="#0B1E60"/>
<path d="M406.912 431.121C407.704 431.121 408.346 430.479 408.346 429.686C408.346 428.894 407.704 428.252 406.912 428.252C406.12 428.252 405.478 428.894 405.478 429.686C405.478 430.479 406.12 431.121 406.912 431.121Z" fill="#0B1E60"/>
<path d="M380.837 407.114L370.996 397.272L365.072 403.243L374.82 412.992L380.837 407.114Z" fill="white"/>
<path d="M384.305 403.721L374.407 393.869L372.711 395.603L382.562 405.455L384.305 403.721Z" fill="white"/>
<path d="M367.068 429.04L377.285 418.831L363.357 404.902L360.404 407.855C359.374 409.213 358.633 410.768 358.229 412.424C357.824 414.08 357.764 415.801 358.052 417.482C358.43 419.279 359.237 420.957 360.404 422.375L367.068 429.04Z" fill="white"/>
<path d="M378.991 420.538L368.784 430.755L371.558 433.53L358.38 446.719L361.379 449.709L382.637 470.838L385.627 473.837L398.814 460.658L401.345 463.189L411.496 453.046L378.991 420.538Z" fill="white"/>
<path d="M403.06 464.904L409.968 471.813C411.382 472.98 413.057 473.788 414.851 474.166C416.533 474.451 418.255 474.389 419.912 473.985C421.569 473.58 423.126 472.841 424.486 471.813C425.442 470.85 426.405 469.888 427.373 468.926L413.239 454.799L403.06 464.904Z" fill="white"/>
<path d="M419.331 457.461L429.089 467.21C431.057 465.229 433.028 463.254 435.003 461.286L425.161 451.443L419.331 457.461Z" fill="white"/>
<path d="M428.62 447.909L426.877 449.709L436.727 459.57L438.518 457.808L428.62 447.909Z" fill="white"/>
<path d="M411.252 422.544L402.582 413.873C400.167 414.161 397.882 415.123 395.988 416.649C394.094 418.174 392.667 420.202 391.871 422.5C391.075 424.798 390.941 427.274 391.485 429.645C392.029 432.016 393.228 434.185 394.947 435.906C396.666 437.627 398.834 438.83 401.203 439.377C403.573 439.924 406.049 439.794 408.348 439C410.647 438.207 412.676 436.783 414.204 434.89C415.732 432.998 416.697 430.714 416.988 428.299L411.252 422.544ZM411.383 432.649C409.443 434.936 405.057 434.458 401.251 431.711L401.12 431.608C400.872 431.434 400.634 431.246 400.408 431.046C400.376 431.029 400.347 431.007 400.323 430.98C399.995 430.699 399.676 430.408 399.386 430.099C396.096 426.79 394.981 422.6 396.902 420.322C398.824 418.044 403.163 418.494 406.95 421.259C407.297 421.503 407.643 421.766 407.972 422.047L408.075 422.14L408.749 422.769L408.834 422.853C412.18 426.115 413.323 430.361 411.364 432.649H411.383ZM406.088 413.901L409.64 417.454L416.988 424.803C416.573 422.064 415.29 419.53 413.328 417.574C411.365 415.619 408.828 414.344 406.088 413.938V413.901Z" fill="white"/>
<path d="M339.334 465.767C342.89 469.322 346.445 472.866 350 476.397L345.314 481.084L334.648 470.454L339.334 465.767Z" fill="white"/>
<path d="M351.744 474.653C348.17 471.122 344.605 467.588 341.049 464.051L345.07 460.03L355.737 470.669L351.744 474.653Z" fill="white"/>
<path d="M356.393 481.674L367.012 492.295L361.388 497.853L350.825 487.233L356.393 481.674Z" fill="white"/>
<path d="M372.786 486.548L368.765 490.523L358.099 479.959L362.129 475.937L372.786 486.548Z" fill="white"/>
<path d="M383.799 475.637L374.539 484.796L363.844 474.231C364.781 473.247 365.784 472.272 366.759 471.307C367.26 470.495 367.472 469.538 367.361 468.59C367.251 467.643 366.823 466.761 366.149 466.086C365.475 465.412 364.592 464.984 363.645 464.874C362.698 464.763 361.741 464.975 360.929 465.476L357.48 468.926L346.776 458.324L356.627 448.472L383.799 475.637Z" fill="white"/>
<path d="M390.997 428.009L389.507 429.508L388.907 430.118L387.914 429.124L388.513 428.515L389.994 427.024L390.997 428.009Z" fill="#F9C400"/>
<path d="M391.991 429.002L390.5 430.502L389.901 431.111L388.907 430.118L389.507 429.508L390.997 428.009L391.991 429.002Z" fill="#FF5100"/>
<path d="M393.987 430.98L392.497 432.489L391.897 433.099L390.904 432.096L391.503 431.496L392.994 429.996L393.987 430.98Z" fill="#FF5100"/>
<path d="M395.984 432.958L394.484 434.477L393.893 435.076L392.9 434.083L393.49 433.483L394.99 431.974L395.984 432.958Z" fill="#FF5100"/>
<path d="M397.989 434.945L396.471 436.473L395.89 437.064L394.887 436.07L395.477 435.47L396.986 433.952L397.989 434.945Z" fill="#FF5100"/>
<path d="M399.986 436.923L398.458 438.46L397.886 439.042L396.883 438.048L397.465 437.457L398.983 435.929L399.986 436.923Z" fill="#FF5100"/>
<path d="M401.982 438.901L400.445 440.448L399.873 441.019L398.88 440.026L399.452 439.454L400.979 437.917L401.982 438.901Z" fill="#FF5100"/>
<path d="M403.979 440.879L402.441 442.435L401.87 443.007L400.876 442.013L401.448 441.441L402.976 439.895L403.979 440.879Z" fill="#FF5100"/>
<path d="M392.994 429.996L391.503 431.496L390.904 432.096L389.901 431.111L390.5 430.502L391.991 429.002L392.994 429.996Z" fill="#F9C400"/>
<path d="M394.99 431.974L393.49 433.483L392.9 434.083L391.897 433.099L392.497 432.489L393.987 430.98L394.99 431.974Z" fill="#F9C400"/>
<path d="M396.986 433.952L395.477 435.47L394.887 436.07L393.893 435.076L394.484 434.477L395.984 432.958L396.986 433.952Z" fill="#F9C400"/>
<path d="M398.983 435.929L397.464 437.457L396.883 438.048L395.89 437.064L396.471 436.473L397.989 434.945L398.983 435.929Z" fill="#F9C400"/>
<path d="M400.979 437.917L399.452 439.454L398.88 440.026L397.886 439.042L398.458 438.46L399.986 436.923L400.979 437.917Z" fill="#F9C400"/>
<path d="M402.976 439.895L401.448 441.441L400.876 442.013L399.873 441.019L400.445 440.448L401.982 438.901L402.976 439.895Z" fill="#F9C400"/>
<path d="M345.314 481.046C341.69 484.683 338.059 488.314 334.423 491.938L332.426 489.942L333.664 488.705L332.998 488.039L331.761 489.276L330.308 487.823L331.48 486.652L330.824 485.995L329.652 487.167L328.012 485.527L329.211 484.327L328.546 483.661L327.346 484.861L325.893 483.408L327.028 482.274L326.371 481.618L325.237 482.752L323.906 481.421L325.144 480.184L324.478 479.518L323.26 480.784L321.807 479.331L322.978 478.159L322.322 477.503L321.151 478.674L319.51 477.062C319.941 476.306 320.457 475.601 321.048 474.962C321.741 474.018 322.677 473.279 323.756 472.825C324.848 472.537 326.003 472.602 327.056 473.013C328.327 473.4 329.483 474.095 330.421 475.037L334.844 470.613L345.314 481.046Z" fill="#FD4F00"/>
<path d="M339.934 486.464C338.456 485.049 336.496 484.249 334.451 484.224V484.224C332.412 484.254 330.46 485.054 328.986 486.464L328.33 485.789C329.975 484.202 332.165 483.306 334.451 483.286V483.286C336.743 483.298 338.943 484.195 340.59 485.789L339.934 486.464Z" fill="#F9C400"/>
<path d="M328.343 473.611L322.188 479.732L322.849 480.396L329.004 474.276L328.343 473.611Z" fill="#F9C400"/>
<path d="M333.768 471.694L333.106 472.357L343.431 482.684L344.094 482.021L333.768 471.694Z" fill="#F9C400"/>
<path d="M350.891 487.214L340 498.107L341.996 500.103L343.233 498.866L343.899 499.531L342.661 500.731L344.114 502.184L345.286 501.012L345.942 501.669L344.817 502.878L346.411 504.481L347.61 503.281L348.276 503.946L347.076 505.146L348.566 506.637L349.7 505.503L350.357 506.159L349.185 507.293L350.516 508.624L351.753 507.387L352.419 508.052L351.181 509.29L352.634 510.743L353.806 509.571L354.462 510.227L353.253 511.399L354.865 513.011C355.621 512.58 356.325 512.065 356.964 511.474C357.909 510.781 358.647 509.844 359.101 508.765C359.39 507.673 359.324 506.517 358.914 505.465C358.527 504.193 357.831 503.037 356.889 502.1L361.313 497.675L350.891 487.214Z" fill="#FD4F00"/>
<path d="M345.501 492.595C346.913 494.074 347.71 496.034 347.732 498.078C347.704 500.116 346.908 502.068 345.501 503.543L346.167 504.2C347.757 502.557 348.653 500.365 348.669 498.078V498.078C348.66 495.785 347.764 493.584 346.167 491.938L345.501 492.595Z" fill="#F9C400"/>
<path d="M357.712 503.511L351.592 509.666L352.256 510.327L358.376 504.172L357.712 503.511Z" fill="#F9C400"/>
<path d="M349.949 488.43L349.286 489.093L359.612 499.42L360.275 498.757L349.949 488.43Z" fill="#F9C400"/>
<path d="M383.593 449.119L383.48 449.24C383.283 449.465 383.087 449.69 382.862 449.906L382.796 449.981C382.49 450.293 382.177 450.584 381.859 450.853C378.297 453.871 374.023 454.602 371.914 452.549C369.805 450.497 370.593 446.166 373.611 442.604C373.879 442.272 374.17 441.96 374.482 441.666L374.585 441.573L375.26 440.954L375.354 440.87C378.925 437.795 383.255 436.989 385.374 439.107C387.492 441.226 386.658 445.547 383.593 449.119Z" fill="#0B1E60"/>
<path d="M383.48 449.24C383.283 449.465 383.087 449.69 382.862 449.906L374.567 441.554L375.241 440.935L383.48 449.24Z" fill="#F9C400"/>
<path d="M393.523 447.312L391.177 444.966L388.831 447.312L391.177 449.658L393.523 447.312Z" fill="#00B3E3"/>
<path d="M396.795 450.579L394.448 448.233L392.102 450.579L394.448 452.926L396.795 450.579Z" fill="#00B3E3"/>
<path d="M389.626 451.319L387.28 448.973L384.934 451.319L387.28 453.666L389.626 451.319Z" fill="#00B3E3"/>
<path d="M392.897 454.596L390.551 452.249L388.205 454.596L390.551 456.942L392.897 454.596Z" fill="#00B3E3"/>
<path d="M385.914 455.126L383.567 452.779L381.221 455.126L383.567 457.472L385.914 455.126Z" fill="#00B3E3"/>
<path d="M389.191 458.386L386.845 456.04L384.499 458.386L386.845 460.733L389.191 458.386Z" fill="#00B3E3"/>
<path d="M382.48 458.658L380.133 456.311L377.787 458.658L380.133 461.004L382.48 458.658Z" fill="#00B3E3"/>
<path d="M385.751 461.934L383.405 459.588L381.058 461.934L383.405 464.281L385.751 461.934Z" fill="#00B3E3"/>
<path d="M383.902 422.554L382.358 421.01L380.814 422.554L382.358 424.098L383.902 422.554Z" fill="#FD4F00"/>
<path d="M386.058 424.713L384.514 423.168L382.97 424.713L384.514 426.257L386.058 424.713Z" fill="#FD4F00"/>
<path d="M421.958 430.34L420.414 428.796L411.957 437.254L413.501 438.798L421.958 430.34Z" fill="#FD4F00"/>
<path d="M365.297 459.12L363.975 460.47L371.352 468.044L372.786 466.816L365.297 459.12Z" fill="#FD4F00"/>
<path d="M298.094 451.837C295.577 451.866 293.096 451.249 290.886 450.047C288.723 448.807 286.901 447.052 285.581 444.938C282.441 440.157 282.225 435.33 282.028 431.074C281.992 429.294 281.842 427.519 281.579 425.759C279.376 413.057 265.476 404.705 257.612 401.771C245.784 397.346 234.967 399.831 229.569 401.696L229.109 400.374C238.496 397.057 248.74 397.083 258.109 400.449C266.254 403.486 280.651 412.195 282.966 425.524C283.238 427.341 283.395 429.172 283.434 431.008C283.631 435.283 283.828 439.707 286.762 444.132C287.955 446.053 289.607 447.648 291.57 448.772C294.339 450.219 297.504 450.726 300.587 450.215C307.41 449.278 311.515 444.122 312.968 441.948L313.099 441.741C316.333 436.745 315.808 431.871 315.293 427.155C314.768 422.281 314.271 417.688 317.767 413.385C322.388 407.695 329.952 407.433 330.758 407.423C331.564 407.414 338.847 407.48 343.796 413.001C347.001 416.582 347.31 420.331 347.61 423.959C347.873 427.155 348.126 430.174 350.357 432.949C353.225 436.511 358.445 438.376 365.887 438.479V439.885C358.005 439.773 352.419 437.739 349.279 433.83C346.776 430.718 346.467 427.343 346.233 424.071C345.933 420.519 345.661 417.163 342.765 413.938C338.134 408.867 331.077 408.867 330.758 408.867C330.439 408.867 323.128 409.026 318.836 414.313C315.714 418.157 316.183 422.469 316.68 427.043C317.186 431.73 317.767 437.129 314.271 442.519L314.121 442.763C312.565 445.097 308.141 450.656 300.755 451.64C299.874 451.768 298.984 451.834 298.094 451.837V451.837Z" fill="white"/>
<path d="M268.944 624.926C268.944 622.957 268.944 620.983 268.944 619.002H304.158C306.467 619.36 308.563 620.558 310.044 622.367C311.047 623.641 311.694 625.158 311.918 626.763V649.101H301.852V637.74L291.992 647.601L284.203 639.812L293.679 630.335L276.733 630.86C275.364 629.922 273.921 628.882 272.534 627.794C271.278 626.829 270.087 625.873 268.944 624.926Z" fill="#00B3E3"/>
<path d="M291.992 578.431C291.889 578.994 291.373 579.181 291.055 580.053C290.921 580.461 290.87 580.891 290.905 581.318C290.905 582.828 287.924 585.799 284.522 585.874C283.206 585.846 281.92 585.479 280.788 584.807C279.657 584.135 278.718 583.182 278.064 582.04C277.42 580.946 277.08 579.701 277.08 578.431C277.08 573.904 281.325 570.726 284.522 570.988C285.391 571.079 286.22 571.403 286.921 571.926C288.528 573.248 289.9 574.833 290.98 576.613C291.326 577.016 292.123 577.672 291.992 578.431Z" fill="#F9C400"/>
<path d="M287.315 571.101C287.316 571.254 287.284 571.405 287.221 571.544C287.158 571.684 287.065 571.807 286.949 571.907C286.248 571.384 285.419 571.06 284.55 570.97C281.354 570.707 277.108 573.885 277.108 578.413C277.108 579.682 277.448 580.928 278.092 582.022C277.876 582.01 277.663 581.976 277.455 581.918C276.946 581.782 276.474 581.536 276.071 581.197C275.668 580.859 275.343 580.436 275.121 579.959C274.981 579.66 274.877 579.345 274.811 579.022C274.703 579.204 274.552 579.357 274.37 579.467C274.189 579.576 273.983 579.639 273.771 579.65C272.993 579.65 272.365 578.778 272.365 577.719C272.365 576.66 272.993 575.788 273.771 575.788C274.011 575.802 274.242 575.881 274.44 576.016C274.638 576.152 274.796 576.338 274.896 576.557C275.068 575.807 275.342 575.085 275.711 574.41C275.998 573.943 276.311 573.492 276.648 573.06C277.432 572.036 278.383 571.152 279.46 570.445C280.437 569.901 281.522 569.581 282.638 569.507C283.11 569.48 283.585 569.502 284.053 569.573C284.353 569.648 287.174 570.098 287.315 571.101Z" fill="#FD4F00"/>
<path d="M286.949 571.907C286.315 572.453 285.596 572.893 284.822 573.21C283.792 573.634 282.68 573.819 281.569 573.754C281.366 574.2 281.276 574.689 281.307 575.179C281.322 575.453 281.322 575.729 281.307 576.004C281.307 576.416 281.307 576.557 281.194 576.594C281.082 576.632 280.801 576.294 280.557 576.378C280.505 576.4 280.459 576.436 280.426 576.482C280.292 576.594 280.18 576.731 280.098 576.885C279.955 577.175 279.915 577.506 279.985 577.822C280.135 578.159 280.285 578.253 280.398 578.263C280.51 578.272 280.744 578.103 280.96 578.169C281.176 578.234 281.204 578.403 281.279 578.563C281.387 578.8 281.429 579.062 281.4 579.322C281.328 579.904 281.079 580.45 280.688 580.887C280.365 581.261 279.96 581.556 279.505 581.749C279.05 581.942 278.557 582.029 278.064 582.003C277.42 580.909 277.08 579.663 277.08 578.394C277.08 573.866 281.325 570.688 284.522 570.951C285.403 571.042 286.242 571.373 286.949 571.907Z" fill="#FD4F00"/>
<path d="M287.268 577.513C287.62 577.513 287.905 577.227 287.905 576.875C287.905 576.523 287.62 576.238 287.268 576.238C286.916 576.238 286.631 576.523 286.631 576.875C286.631 577.227 286.916 577.513 287.268 577.513Z" fill="#0B1E60"/>
<path d="M265.513 585.874C263.974 586.28 262.593 587.139 261.549 588.34C260.425 589.653 259.766 591.301 259.674 593.027C259.737 596.832 259.799 600.641 259.862 604.453C260.091 606.214 260.875 607.856 262.102 609.14C263.001 610.01 264.076 610.676 265.255 611.093C266.434 611.511 267.689 611.669 268.935 611.559V618.973H301.561L301.711 611.877H307.185C308.102 609.696 308.629 607.37 308.741 605.006C308.947 600.319 307.382 597.292 309.228 595.229C310.288 594.058 311.722 594.011 311.712 593.355C311.712 592.483 309.275 591.827 307.185 591.405C306.282 589.907 305.06 588.626 303.605 587.655C301.962 586.576 300.072 585.931 298.112 585.78L265.513 585.874Z" fill="#FD4F00"/>
<path d="M286.649 585.865V591.611L279.863 585.865H286.649Z" fill="white"/>
<path d="M289.517 599.785C290.892 597.618 293.029 596.046 295.507 595.379C297.046 595 298.654 595 300.193 595.379C300.549 595.539 304.392 597.254 305.151 601.294C305.845 604.913 303.708 608.84 299.846 610.556C300.146 612.372 300.019 614.234 299.475 615.993C298.931 617.752 297.985 619.36 296.712 620.689C295.438 622.019 293.873 623.034 292.139 623.654C290.406 624.274 288.552 624.481 286.724 624.26C285.238 624.208 283.777 623.861 282.425 623.24C281.074 622.619 279.859 621.736 278.851 620.642C274.886 616.199 276.517 610.378 276.62 610.021C277.033 608.859 277.454 607.697 277.867 606.525C279.326 603.571 281.888 601.309 285 600.226C286.461 599.779 287.997 599.63 289.517 599.785Z" fill="white"/>
<path d="M268.897 602.429V611.615H281.307C282.513 610.146 283.762 608.665 285.056 607.172C286.434 605.55 287.802 603.975 289.171 602.429H268.897Z" fill="#F9C400"/>
<path d="M288.908 616.771C291.59 616.771 293.763 614.597 293.763 611.915C293.763 609.233 291.59 607.059 288.908 607.059C286.227 607.059 284.053 609.233 284.053 611.915C284.053 614.597 286.227 616.771 288.908 616.771Z" fill="#0B1E60"/>
<path d="M288.908 617.239C287.853 617.241 286.82 616.93 285.942 616.344C285.063 615.759 284.378 614.926 283.973 613.951C283.569 612.976 283.462 611.903 283.668 610.867C283.873 609.832 284.381 608.881 285.128 608.134C285.874 607.388 286.825 606.879 287.861 606.674C288.896 606.468 289.969 606.575 290.944 606.98C291.919 607.384 292.752 608.07 293.337 608.948C293.922 609.827 294.234 610.859 294.232 611.915C294.229 613.326 293.668 614.679 292.67 615.677C291.672 616.675 290.319 617.237 288.908 617.239V617.239ZM288.908 607.519C288.038 607.517 287.187 607.773 286.463 608.255C285.739 608.737 285.174 609.423 284.84 610.226C284.506 611.029 284.418 611.913 284.586 612.767C284.755 613.62 285.173 614.405 285.787 615.02C286.401 615.636 287.185 616.056 288.038 616.226C288.891 616.397 289.775 616.31 290.579 615.978C291.383 615.645 292.07 615.082 292.553 614.358C293.037 613.635 293.295 612.785 293.295 611.915C293.292 610.751 292.829 609.636 292.008 608.812C291.186 607.989 290.072 607.524 288.908 607.519V607.519Z" fill="#FD4F00"/>
<path d="M290.323 607.266L314.74 583.156C315.255 583.578 315.799 584.093 316.352 584.581C316.727 584.949 317.074 585.306 317.392 585.649L293.435 610.162C293.171 609.474 292.754 608.855 292.215 608.353C291.675 607.851 291.028 607.479 290.323 607.266Z" fill="#0B1E60"/>
<path d="M293.266 611.006L293.004 610.331C292.792 609.791 292.474 609.3 292.067 608.887C291.549 608.345 290.905 607.939 290.192 607.706L289.442 607.481L314.749 582.528L315.077 582.79C315.639 583.25 316.202 583.728 316.727 584.243C317.102 584.609 317.458 584.974 317.786 585.331L318.086 585.659L293.266 611.006ZM291.176 607.087C292.194 607.572 293.036 608.361 293.585 609.346L316.755 585.64L316.033 584.918C315.63 584.534 315.208 584.149 314.777 583.793L291.176 607.087Z" fill="#FD4F00"/>
<path d="M317.805 602.429C317.761 604.195 317.275 605.923 316.389 607.453C315.217 609.447 313.432 611.009 311.3 611.906H306.867V597.189H306.913C307.898 596.251 308.6 595.483 309.069 594.967C309.275 594.733 309.641 594.33 310.166 593.795C310.691 593.261 310.991 592.97 311.234 592.736C311.963 592.963 312.662 593.278 313.315 593.673C314.324 594.271 315.209 595.057 315.921 595.989C317.278 597.851 317.945 600.128 317.805 602.429V602.429Z" fill="#F9C400"/>
<path opacity="0.8" d="M311.234 592.689C310.634 593.289 310.128 593.814 309.725 594.245C308.938 595.079 309.125 594.92 308.638 595.426C308.151 595.932 308.188 595.867 308.113 596.007C307.738 596.748 308.235 597.498 307.982 597.685C307.869 597.77 307.607 597.742 306.97 597.264C306.567 596.879 306.145 596.457 305.723 596.007C305.151 595.398 304.636 594.808 304.167 594.226L306.117 592.295L307.935 590.514L309.631 591.62L311.234 592.689Z" fill="#F9C400"/>
<path d="M284.203 639.812L280.669 643.346L291.767 654.463C292.2 654.183 292.55 653.791 292.779 653.329C292.99 652.898 293.083 652.42 293.051 651.941C292.789 651.693 292.545 651.427 292.32 651.145C292.089 650.85 291.882 650.536 291.701 650.207C291.596 649.874 291.548 649.525 291.561 649.176C291.571 648.626 291.719 648.088 291.992 647.611L284.203 639.812Z" fill="#0B1E60"/>
<path d="M301.852 648.604L301.768 653.169H316.202C316.251 652.875 316.251 652.574 316.202 652.279C316.125 651.684 315.866 651.128 315.461 650.685L313.324 650.601C312.968 650.383 312.665 650.086 312.439 649.734C312.213 649.381 312.071 648.982 312.022 648.567L301.852 648.604Z" fill="#0B1E60"/>
<path d="M321.993 584.451L315.333 578.456L312.267 581.863L318.927 587.858L321.993 584.451Z" fill="#FD4F00"/>
<path d="M701.923 510.218C702.026 510.78 702.542 510.968 702.86 511.839C702.993 512.247 703.044 512.677 703.01 513.105C703.01 514.614 705.991 517.585 709.393 517.66C710.709 517.633 711.995 517.265 713.126 516.593C714.258 515.921 715.197 514.968 715.851 513.827C716.495 512.733 716.834 511.487 716.835 510.218C716.835 505.69 712.589 502.512 709.393 502.775C708.523 502.865 707.694 503.189 706.994 503.712C705.386 505.034 704.014 506.619 702.935 508.399C702.551 508.802 701.754 509.458 701.923 510.218Z" fill="#F9C400"/>
<path d="M709.056 504.996C710.085 505.42 711.197 505.606 712.308 505.54C712.486 507.162 712.576 508.792 712.58 510.424C712.58 510.424 712.514 516.404 714.126 516.676C714.942 516.817 715.767 515.739 716.001 515.448C717.969 512.824 716.76 507.246 716.273 505.381C715.982 504.481 708.915 504.931 709.056 504.996Z" fill="#FD4F00"/>
<path d="M706.609 509.308C706.961 509.308 707.247 509.023 707.247 508.671C707.247 508.319 706.961 508.033 706.609 508.033C706.257 508.033 705.972 508.319 705.972 508.671C705.972 509.023 706.257 509.308 706.609 509.308Z" fill="#0B1E60"/>
<path d="M719.591 507.368L717.032 511.042L703.629 501.584L704.285 500.647L707.612 502.99L710.218 499.325L719.591 507.368Z" fill="#000C6F"/>
<path d="M733.209 530.728C732.786 532.673 731.736 534.425 730.22 535.715C728.286 537.26 725.819 537.978 723.359 537.711V552.166H695.306V529.359L675.566 509.618C674.479 507.605 673.936 505.343 673.992 503.056C674.048 501.006 674.588 498.999 675.566 497.197H677.441L697.677 517.604H725.974C728.365 518.111 730.493 519.466 731.963 521.419C734.934 525.544 733.369 530.287 733.209 530.728Z" fill="#FD4F00"/>
<path d="M702.692 517.642H700.854V552.175H702.692V517.642Z" fill="#000C6F"/>
<path d="M695.324 552.184V554.022H723.377V552.184H695.324Z" fill="#000C6F"/>
<path d="M718.597 517.642H716.77V552.175H718.597V517.642Z" fill="#000C6F"/>
<path d="M670.552 498.585C670.441 498.659 670.343 498.751 670.261 498.856C669.38 499.972 670.983 502.1 671.583 504.059C672.019 505.717 672.003 507.461 671.534 509.11C671.066 510.759 670.163 512.252 668.921 513.433C667.356 514.781 665.363 515.529 663.297 515.542C661.106 515.602 658.98 514.793 657.383 513.292C655.021 510.864 654.721 506.871 655.509 504.096C656.165 501.931 657.767 499.672 656.924 498.763C656.827 498.659 656.709 498.579 656.577 498.528C655.865 497.994 650.091 493.401 650.091 486.108C650.091 478.074 656.146 471.569 663.625 471.569C671.105 471.569 677.15 478.074 677.15 486.108C677.183 488.574 676.596 491.008 675.443 493.188C674.29 495.368 672.608 497.224 670.552 498.585V498.585Z" fill="#00B3E3"/>
<path d="M682.671 475.872L660.364 497.872L652.706 490.317L653.24 489.811L656.68 493.251L658.002 491.929L654.59 488.517L656.108 487.055L659.492 490.439L660.814 489.117L657.458 485.761L658.986 484.308L662.304 487.626L663.625 486.305L660.336 483.015L661.854 481.552L665.116 484.814L666.437 483.493L663.204 480.259L664.731 478.806L667.928 482.002L669.249 480.68L666.081 477.512L667.6 476.05L670.739 479.19L672.061 477.868L668.949 474.756L670.477 473.303L673.551 476.378L674.873 475.056L671.827 472.01L673.345 470.547L676.363 473.566L677.685 472.244L674.695 469.254L675.342 468.635L682.671 475.872Z" fill="#000C6F"/>
<path d="M700.901 517.595L700.854 517.642H699.627L669.427 487.448L670.093 486.783L700.901 517.595Z" fill="#000C6F"/>
<path opacity="0.7" d="M675.566 497.197L679.878 492.885L684.236 497.244L680.862 500.619L677.46 497.216L675.566 497.197Z" fill="#F9C400"/>
<path d="M658.555 522.854C657.081 523.793 655.909 525.137 655.181 526.725C654.819 527.544 654.585 528.413 654.487 529.303C654.29 532.612 656.652 534.927 658.752 534.862C659.537 534.743 660.275 534.413 660.886 533.906C661.497 533.399 661.959 532.734 662.22 531.984C662.869 530.696 663.079 529.231 662.819 527.812C662.154 524.382 658.808 522.975 658.555 522.854Z" fill="#00B3E3"/>
<path d="M673.598 517.229C672.564 517.883 671.743 518.825 671.236 519.938C670.98 520.512 670.816 521.123 670.749 521.747C670.608 524.053 672.267 525.694 673.739 525.628C674.288 525.548 674.805 525.318 675.233 524.965C675.661 524.611 675.984 524.147 676.166 523.622C676.619 522.718 676.766 521.692 676.588 520.698C676.393 519.927 676.022 519.212 675.503 518.61C674.984 518.008 674.332 517.535 673.598 517.229V517.229Z" fill="#00B3E3"/>
<path d="M695.362 554.022V559.402L673.354 581.394L680.553 588.593L709.384 560.04H712.355V592.595H723.415V554.022H695.362Z" fill="#DBD8D7"/>
<path d="M673.317 581.394L670.58 582.331L667.843 580.391C667.305 580.474 666.811 580.735 666.437 581.131C666.19 581.399 666.008 581.72 665.903 582.068L676.494 592.595L680.515 588.583L673.317 581.394Z" fill="#FD3E00"/>
<path d="M712.317 592.595L710.799 595.304L707.706 595.876C707.443 596.286 707.326 596.771 707.371 597.256C707.417 597.74 707.624 598.195 707.959 598.548C710.19 598.604 712.521 598.604 714.951 598.548C717.885 598.463 720.659 598.276 723.284 598.023C723.284 596.289 723.34 594.545 723.377 592.802L712.317 592.595Z" fill="#FD3E00"/>
<path d="M744.598 579.753L743.163 586.521L742.704 588.64L741.42 594.47C737.84 595.498 734.208 596.334 730.538 596.973C730.476 596.945 730.406 596.937 730.339 596.95C730.272 596.964 730.21 596.998 730.163 597.048C729.498 594.358 728.842 591.658 728.176 588.968L727.623 586.69L725.936 579.762L744.598 579.753Z" fill="#00B3E3"/>
<path d="M735.159 592.145C734.887 592.145 734.615 592.145 734.344 592.145C729.357 591.667 724.418 586.577 724.971 579.753L725.908 579.828C725.374 586.015 729.957 590.786 734.4 591.208C735.728 591.29 737.057 591.081 738.296 590.595C739.535 590.109 740.652 589.359 741.57 588.396C742.71 587.283 743.595 585.935 744.161 584.446C744.728 582.956 744.963 581.361 744.851 579.772L745.788 579.706C745.914 581.433 745.662 583.167 745.048 584.786C744.435 586.405 743.475 587.871 742.236 589.08C740.362 590.979 737.826 592.078 735.159 592.145V592.145Z" fill="#000C6F"/>
<path opacity="0.9" d="M740.258 579.753H733.8V587.224H740.258V579.753Z" fill="white"/>
<path opacity="0.7" d="M740.258 582.35H733.8V585.715H740.258V582.35Z" fill="#FD4F00"/>
<path d="M549.145 800.527C549.727 800.03 549.52 799.008 549.567 798.455C549.783 795.221 550.017 791.894 548.049 790.019C545.734 787.797 540.438 787.591 537.589 791.116C536.371 792.668 535.804 794.634 536.009 796.596C536.214 798.559 537.173 800.365 538.685 801.633C541.366 803.724 545.565 803.292 546.502 802.121C546.75 801.749 547.068 801.431 547.44 801.183C548.208 800.696 548.705 800.902 549.145 800.527Z" fill="#F9C400"/>
<path d="M546.043 796.431C546.483 796.431 546.84 796.074 546.84 795.634C546.84 795.194 546.483 794.837 546.043 794.837C545.603 794.837 545.246 795.194 545.246 795.634C545.246 796.074 545.603 796.431 546.043 796.431Z" fill="#0B1E60"/>
<path d="M533.493 774.196L522.133 785.557L527.944 791.378L521.233 798.081L513.904 790.75C512.452 789.072 511.68 786.912 511.738 784.695C511.738 783.992 511.926 782.304 513.904 779.286C515.915 776.262 518.524 773.681 521.571 771.702C522.252 771.393 522.957 771.139 523.679 770.943C524.805 770.597 525.98 770.438 527.157 770.474C528.043 770.494 528.92 770.659 529.753 770.962C531.315 771.61 532.626 772.744 533.493 774.196Z" fill="#F9C400"/>
<path d="M547.955 810.876L542.641 815.994H550.364L547.955 810.876Z" fill="#F9C400"/>
<path d="M547.946 810.876L529.856 828.152L528.169 826.483L525.629 823.971L523.839 822.181L518.215 816.631L516.228 814.672L514.381 812.882L510.389 808.945L527.944 791.397L531.956 795.306L533.83 797.087L541.497 804.586L543.372 806.376L547.946 810.876Z" fill="#FD4F00"/>
<path d="M533.783 797.068L516.19 814.663L514.381 812.863L531.956 795.287L533.783 797.068Z" fill="#0B1E60"/>
<path d="M543.287 806.32L525.629 823.962L523.839 822.181L541.478 804.539L543.287 806.32Z" fill="#0B1E60"/>
<path d="M528.356 830.261V858.955H517.906V837.038C517.698 836.298 517.254 835.647 516.641 835.182C516.029 834.718 515.281 834.467 514.513 834.467C513.744 834.467 512.997 834.718 512.384 835.182C511.772 835.647 511.328 836.298 511.12 837.038V858.955H501.344V826.249C501.276 822.402 502.317 818.617 504.343 815.347C504.996 814.316 505.746 813.349 506.583 812.46C507.087 811.916 507.625 811.406 508.195 810.932C508.295 810.833 508.401 810.743 508.514 810.66L516.697 818.741L526.904 828.817L528.356 830.261Z" fill="#FD4F00"/>
<path d="M511.129 847.181H501.334V849.056H511.129V847.181Z" fill="#F9C400"/>
<path d="M511.129 852.805H501.334V854.68H511.129V852.805Z" fill="#F9C400"/>
<path d="M528.366 847.181H517.906V849.056H528.366V847.181Z" fill="#F9C400"/>
<path d="M528.366 852.805H517.906V854.68H528.366V852.805Z" fill="#F9C400"/>
<path d="M501.334 858.955V870.963H516.012V869.575L511.12 867.438V858.955" fill="#0C1F5F"/>
<path d="M517.906 858.955V871H532.593V869.613L528.103 867.654C528.188 864.766 528.281 861.879 528.366 858.992" fill="#0C1F5F"/>
<path d="M529.856 828.152L528.356 830.261L526.904 828.827L516.687 818.731V818.741L508.505 810.66L498.86 801.127L500.66 799.308L510.389 808.926L514.381 812.863L516.19 814.663L518.178 816.622H518.187L523.811 822.181L525.629 823.971L528.169 826.483L529.856 828.152Z" fill="#0B1E60"/>
<path d="M540.944 773.483L540.925 773.512L540.907 773.493L539.482 775.246L537.945 777.111L536.389 779.005L535.461 775.921L535.367 775.602L526.744 768.487L528.778 766.012L537.401 773.127L537.739 773.165L540.944 773.483Z" fill="white"/>
<path d="M540.925 773.512L539.491 775.246H539.482L540.907 773.493L540.925 773.512Z" fill="white"/>
<path d="M532.059 768.712L536.661 772.462C536.664 771.99 536.601 771.519 536.473 771.065C536.36 770.673 536.196 770.298 535.986 769.949C535.571 769.242 534.9 768.722 534.111 768.496C533.422 768.341 532.701 768.417 532.059 768.712Z" fill="#F9C400"/>
<path d="M542.378 774.693L541.497 775.771L538.563 779.37L537.879 780.214L536.408 779.005L537.945 777.111L539.482 775.246H539.491L540.925 773.512L542.378 774.693Z" fill="#FD4F00"/>
<path d="M540.925 773.512L539.491 775.246H539.482L540.907 773.493L540.925 773.512Z" fill="#FD4F00"/>
<path d="M551.957 778.508L546.633 783.888L543.822 786.701C543.069 786.404 542.254 786.297 541.45 786.391C541.133 786.431 540.819 786.497 540.513 786.588L539.276 781.948L538.563 779.351L541.497 775.752L544.6 776.567L551.957 778.508Z" fill="url(#paint0_linear)"/>
<path d="M539.22 787.301C538.685 787.738 538.27 788.303 538.013 788.944C537.756 789.585 537.665 790.28 537.748 790.966C537.766 791.31 537.859 791.647 538.021 791.951C538.183 792.256 538.41 792.521 538.685 792.728C538.922 792.851 539.18 792.925 539.446 792.948C539.711 792.97 539.978 792.94 540.232 792.859C541.788 792.419 541.591 790.647 542.847 790.141C544.365 789.541 546.84 791.219 548.105 792.512C548.892 793.319 549.305 794.078 550.148 794.115C550.497 794.115 550.839 794.018 551.135 793.834C551.432 793.65 551.671 793.387 551.826 793.075C552.21 792.137 551.545 791.2 551.198 790.694C550.851 790.188 550.083 789.241 546.024 787.535C543.212 786.363 542.341 786.269 541.469 786.391C540.65 786.48 539.871 786.795 539.22 787.301V787.301Z" fill="#FD4F00"/>
<path d="M9.70019 524.035C17.3672 529.659 29.6362 529.931 40.1151 523.969C43.7124 521.918 46.9278 519.261 49.6192 516.114L91.7501 474.006C91.9189 473.903 92.0876 473.781 92.275 473.641C98.2457 469.474 102.963 463.753 105.917 457.098C108.871 450.443 109.949 443.106 109.034 435.883V325.777H54.3056V434.073L10.9561 477.437C7.22451 480.921 4.306 485.184 2.4081 489.923C-2.81258 502.981 0.833468 517.464 9.70019 524.035Z" fill="#DBD8D7"/>
<path d="M109.006 337.372H54.3056V339.35H109.006V337.372Z" fill="#0B1E60"/>
<path d="M37.8843 511.192L37.2189 510.536L91.5814 456.168C93.8227 453.897 95.5714 451.188 96.7181 448.211C97.8647 445.233 98.3847 442.051 98.2455 438.863V339.06H99.1828V438.863C99.324 442.028 98.8333 445.189 97.7394 448.162C96.5407 451.425 94.6548 454.392 92.2094 456.861L37.8843 511.192Z" fill="#0B1E60"/>
<path d="M26.9837 507.452L26.3276 506.777L80.6902 453.637C83.0346 451.325 84.8508 448.533 86.014 445.453C87.0598 442.661 87.5286 439.686 87.3918 436.708V339.06H88.3291V436.689C88.4702 439.786 87.9791 442.88 86.8856 445.781C85.6814 448.991 83.7909 451.899 81.3463 454.302L26.9837 507.452Z" fill="#0B1E60"/>
<path d="M16.0925 503.393L15.4457 502.718L69.8083 450.853C72.1412 448.618 73.9553 445.898 75.1227 442.885C76.1657 440.167 76.6348 437.263 76.5005 434.355V339.06H77.4378V434.327C77.5778 437.357 77.0863 440.383 75.9944 443.213C74.7759 446.358 72.8854 449.199 70.455 451.537L16.0925 503.393Z" fill="#0B1E60"/>
<path d="M5.20123 499.147L4.56387 498.463L58.9264 447.947C61.2487 445.78 63.0634 443.126 64.2408 440.176C65.2838 437.54 65.7535 434.712 65.6186 431.88V339.078H66.5559V431.88C66.6951 434.837 66.2031 437.79 65.1125 440.541C63.8856 443.619 61.9941 446.388 59.5731 448.65L5.20123 499.147Z" fill="#0B1E60"/>
<path d="M88.1135 460.03C88.1073 464.877 89.5465 469.616 92.2469 473.641C98.2176 469.474 102.935 463.753 105.889 457.098C108.843 450.443 109.921 443.106 109.006 435.883V435.789C103.197 436.656 97.8927 439.58 94.0583 444.029C90.2239 448.478 88.1143 454.156 88.1135 460.03V460.03Z" fill="#CBC8C7"/>
<path d="M9.70019 524.035C17.3672 529.659 29.6362 529.931 40.1151 523.969C40.7477 519.018 40.1728 513.987 38.4395 509.306C36.7061 504.624 33.8658 500.432 30.1611 497.087C26.4564 493.742 21.9972 491.344 17.1645 490.096C12.3317 488.849 7.2688 488.789 2.4081 489.923C-2.81258 502.981 0.833468 517.464 9.70019 524.035Z" fill="#CBC8C7"/>
<path d="M109.006 336.876H54.3056V338.244H109.006V336.876Z" fill="#DBD8D7"/>
<path d="M268.222 36.2266C268.616 35.5611 269.656 35.5798 270.191 35.4486C273.34 34.6518 276.527 33.855 278.72 35.4486C281.307 37.3234 282.469 42.5165 279.488 45.938C278.175 47.394 276.35 48.2866 274.394 48.4298C272.438 48.573 270.503 47.9557 268.991 46.7066C266.46 44.4288 266.179 40.2199 267.116 39.095C267.424 38.7925 267.669 38.4326 267.838 38.0358C268.203 37.2015 267.96 36.7234 268.222 36.2266Z" fill="#F9C400"/>
<path d="M273.584 39.2169C274.024 39.2169 274.38 38.8602 274.38 38.4201C274.38 37.9801 274.024 37.6233 273.584 37.6233C273.144 37.6233 272.787 37.9801 272.787 38.4201C272.787 38.8602 273.144 39.2169 273.584 39.2169Z" fill="#0B1E60"/>
<path d="M282.956 43.6695C282.618 44.2698 282.134 44.7756 281.549 45.1408C280.965 45.506 280.298 45.7188 279.61 45.7598C279.272 45.7999 278.93 45.7662 278.606 45.661C278.282 45.5558 277.985 45.3817 277.736 45.1505C277.406 44.7245 277.258 44.1855 277.323 43.6507C277.492 42.0384 279.263 41.9259 279.535 40.5948C279.863 39.0013 277.773 36.8453 276.283 35.8423C275.346 35.2142 274.53 34.9049 274.343 34.1175C274.274 33.7678 274.306 33.4057 274.435 33.0737C274.565 32.7416 274.786 32.4534 275.074 32.2427C275.88 31.7084 276.948 32.1864 277.529 32.4395C278.111 32.6926 279.16 33.2832 281.541 36.9765C283.191 39.5262 283.416 40.3886 283.472 41.2604C283.532 42.0961 283.353 42.9316 282.956 43.6695V43.6695Z" fill="#0B1E60"/>
<path d="M258.521 37.6233L232.296 63.8421V75.747H260.799L278.945 57.6085L258.521 37.6233Z" fill="#CBC8C7"/>
<path d="M265.12 44.0725L262.392 53.7089L271.85 50.6718L265.12 44.0725Z" fill="#0B1E60"/>
<path d="M223.767 59.2207L246.402 36.5547C248.054 35.5425 249.958 35.0162 251.895 35.0361C254.343 35.105 256.689 36.0343 258.521 37.6608L230.468 65.67L223.767 59.2207Z" fill="#0B2061"/>
<path d="M280.604 69.5883C281.374 68.6332 281.929 67.5234 282.231 66.3345C282.534 65.1456 282.576 63.9054 282.356 62.6985C281.903 60.6315 280.684 58.8129 278.945 57.6085L271.503 65.042H256.206V75.7469H272.787C274.532 75.5442 276.187 74.8612 277.567 73.7739C278.947 72.6866 279.998 71.2376 280.604 69.5883V69.5883Z" fill="#0B2061"/>
<path d="M223.767 59.1927L230.468 65.67L227.113 70.6382H222.248V60.9456L223.767 59.1927Z" fill="#F9C400"/>
<path d="M256.206 75.7469V65.0419H244.884L242.316 67.4885V71.2381C243.439 71.4041 244.573 71.4824 245.709 71.4724C246.826 71.3518 247.954 71.377 249.064 71.5474C249.914 71.7527 250.713 72.1255 251.417 72.6442L256.206 75.7469Z" fill="#F9C400"/>
<path d="M259.009 57.7959C259.656 57.7959 260.18 57.2713 260.18 56.6242C260.18 55.9771 259.656 55.4525 259.009 55.4525C258.362 55.4525 257.837 55.9771 257.837 56.6242C257.837 57.2713 258.362 57.7959 259.009 57.7959Z" fill="#0B2061"/>
<path d="M254.322 62.4829C254.969 62.4829 255.494 61.9583 255.494 61.3111C255.494 60.664 254.969 60.1394 254.322 60.1394C253.675 60.1394 253.151 60.664 253.151 61.3111C253.151 61.9583 253.675 62.4829 254.322 62.4829Z" fill="#0B2061"/>
<path d="M232.343 75.7469V113.711H243.3V85.1115C243.534 84.3988 243.987 83.7783 244.595 83.3384C245.202 82.8985 245.933 82.6616 246.683 82.6616C247.433 82.6616 248.164 82.8985 248.772 83.3384C249.38 83.7783 249.833 84.3988 250.067 85.1115V113.711H260.18V75.7469H232.343Z" fill="#00B3E3"/>
<path d="M243.169 113.711C243.169 115.586 243.169 117.404 243.122 119.251H226.663V117.864L232.155 115.727L232.23 113.711" fill="#0C1F5F"/>
<path d="M250.039 113.711V119.214H264.323V117.864L259.965 115.905L260.237 113.711" fill="#0C1F5F"/>
<path d="M103.438 72.9066H102.032V324.493H103.438V72.9066Z" fill="#0B1E60"/>
<path d="M106.765 76.9562C108.997 76.9562 110.805 75.1473 110.805 72.916C110.805 70.6847 108.997 68.8759 106.765 68.8759C104.534 68.8759 102.726 70.6847 102.726 72.916C102.726 75.1473 104.534 76.9562 106.765 76.9562Z" fill="#F9C400"/>
<path d="M106.747 77.65C105.809 77.65 104.892 77.3718 104.112 76.8506C103.332 76.3295 102.724 75.5887 102.365 74.722C102.006 73.8553 101.912 72.9016 102.095 71.9815C102.278 71.0614 102.73 70.2162 103.393 69.5529C104.056 68.8895 104.901 68.4378 105.821 68.2548C106.741 68.0718 107.695 68.1657 108.562 68.5247C109.428 68.8837 110.169 69.4916 110.69 70.2717C111.211 71.0517 111.489 71.9687 111.489 72.9068C111.489 74.1648 110.99 75.3712 110.1 76.2608C109.211 77.1503 108.005 77.65 106.747 77.65V77.65ZM106.747 69.5791C106.086 69.5791 105.441 69.7751 104.892 70.1422C104.343 70.5093 103.915 71.031 103.663 71.6413C103.411 72.2516 103.345 72.9231 103.475 73.5707C103.604 74.2183 103.923 74.8129 104.391 75.2792C104.858 75.7455 105.454 76.0626 106.101 76.1903C106.749 76.318 107.421 76.2506 108.03 75.9966C108.64 75.7426 109.16 75.3134 109.526 74.7634C109.891 74.2134 110.085 73.5672 110.083 72.9068C110.083 72.469 109.997 72.0355 109.829 71.6312C109.661 71.2268 109.416 70.8596 109.106 70.5504C108.796 70.2413 108.428 69.9964 108.023 69.8297C107.618 69.663 107.184 69.5779 106.747 69.5791V69.5791Z" fill="#0B1E60"/>
<path d="M106.765 74.2003C107.475 74.2003 108.05 73.6253 108.05 72.916C108.05 72.2068 107.475 71.6318 106.765 71.6318C106.056 71.6318 105.481 72.2068 105.481 72.916C105.481 73.6253 106.056 74.2003 106.765 74.2003Z" fill="#0B1E60"/>
<path d="M260.94 98.0006C260.164 97.9836 259.4 97.8085 258.694 97.4862C257.988 97.1638 257.355 96.7009 256.834 96.1258C255.672 94.8509 255.7 93.623 255.766 90.6514C255.766 89.714 255.813 88.5704 255.766 87.1737C255.766 80.4808 255.081 77.1062 253.235 74.2565L253.057 73.994C251.182 71.3318 248.371 69.832 244.678 69.5508H106.747V68.1447H244.771C248.989 68.4634 252.167 70.1695 254.257 73.1972L254.454 73.4878C256.459 76.5906 257.181 80.1714 257.209 87.1643C257.209 88.5798 257.209 89.7328 257.209 90.6796C257.144 93.623 257.162 94.3541 257.912 95.179C258.411 95.7468 259.06 96.1617 259.785 96.3757C260.51 96.5897 261.281 96.594 262.008 96.3883C263.883 95.6946 265.11 92.7699 264.07 89.5078L265.41 89.0766C266.732 93.2293 264.932 96.7913 262.505 97.7006C262.006 97.8958 261.475 97.9974 260.94 98.0006V98.0006Z" fill="#0B1E60"/>
<path d="M89.6131 244.196L69.7146 264.106L88.151 282.535H115.904V279.601C115.807 275.514 114.805 271.499 112.97 267.846C110.946 263.909 108.546 261.781 102.538 256.241C99.8389 253.757 95.3681 249.614 89.6131 244.196Z" fill="#00B3E3"/>
<path d="M84.1112 278.504C79.6873 283.126 72.3483 282.798 68.6179 278.439C66.9523 276.355 66.1393 273.716 66.3428 271.056C66.5463 268.396 67.7513 265.912 69.7145 264.106" fill="#0B1E60"/>
<path d="M89.6132 244.196V235.263H99.7358V249.726L97.5145 251.601L89.6132 244.196Z" fill="#0B1E60"/>
<path d="M89.6132 235.263H99.7358V218.174H103.644V212.765H97.4676C95.4061 212.862 93.4558 213.728 92.0017 215.193C90.5476 216.658 89.6953 218.614 89.6132 220.677V235.263Z" fill="#F9C400"/>
<path d="M83.2584 250.551C83.8161 251.094 84.2581 251.744 84.5576 252.462C84.8571 253.18 85.0079 253.951 85.0009 254.729C84.9939 255.507 84.8292 256.276 84.5168 256.989C84.2044 257.701 83.7508 258.343 83.1834 258.875C82.0627 259.847 80.614 260.355 79.1321 260.295C77.6503 260.236 76.2467 259.614 75.2071 258.557" fill="#F9C400"/>
<path d="M79.2843 262.578C77.1464 262.583 75.0912 261.752 73.5575 260.263L74.2136 259.597C75.5399 260.883 77.3078 261.613 79.1551 261.638C81.0024 261.662 82.789 260.979 84.1488 259.728C84.827 259.081 85.3695 258.305 85.7444 257.445C86.1194 256.586 86.3194 255.66 86.3327 254.723C86.3519 253.759 86.1776 252.801 85.8202 251.906C85.4628 251.011 84.9295 250.196 84.2519 249.511L84.9267 248.855C85.685 249.63 86.2798 250.55 86.6758 251.559C87.0719 252.569 87.2612 253.648 87.2325 254.732C87.2239 255.771 87.0107 256.797 86.6051 257.753C86.1995 258.709 85.6094 259.576 84.8686 260.304C84.1278 261.032 83.2508 261.606 82.2878 261.995C81.3248 262.384 80.2946 262.579 79.2562 262.569L79.2843 262.578Z" fill="#0B1E60"/>
<path d="M77.4003 271.708L100.673 248.48H103.672C103.672 250.523 103.672 252.229 103.729 253.317C103.804 255.576 103.897 256.241 103.644 257.263C103.197 258.771 102.321 260.115 101.123 261.134C98.5736 263.534 92.4719 269.88 84.1113 278.504C81.8805 276.236 79.6435 273.97 77.4003 271.708Z" fill="#F9C400"/>
<path d="M79.4342 243.39C79.05 242.724 78.0096 242.743 77.4659 242.612C74.326 241.815 71.1393 241.018 68.946 242.612C66.3497 244.486 65.1969 249.68 68.1775 253.101C69.4883 254.558 71.3121 255.452 73.2669 255.596C75.2218 255.739 77.1563 255.12 78.6657 253.87C81.1963 251.592 81.4775 247.383 80.5402 246.258C80.2327 245.956 79.9876 245.596 79.8185 245.199C79.4624 244.365 79.7248 243.886 79.4342 243.39Z" fill="#F9C400"/>
<path d="M74.0729 246.38C74.5129 246.38 74.8696 246.023 74.8696 245.583C74.8696 245.143 74.5129 244.786 74.0729 244.786C73.6329 244.786 73.2762 245.143 73.2762 245.583C73.2762 246.023 73.6329 246.38 74.0729 246.38Z" fill="#0B1E60"/>
<path d="M64.672 250.833C65.0093 251.434 65.4927 251.941 66.0775 252.306C66.6623 252.671 67.3297 252.884 68.0181 252.923C68.356 252.962 68.6984 252.928 69.022 252.823C69.3455 252.718 69.6425 252.544 69.8926 252.314C70.0575 252.104 70.1783 251.863 70.2475 251.605C70.3168 251.347 70.3332 251.078 70.2957 250.814C70.1363 249.201 68.3555 249.089 68.0837 247.758C67.7556 246.164 69.8458 244.008 71.3454 243.005C72.2827 242.377 73.0982 242.068 73.2856 241.281C73.3546 240.931 73.3224 240.569 73.1929 240.237C73.0634 239.905 72.842 239.616 72.5545 239.406C71.7391 238.871 70.68 239.35 70.0989 239.603C69.5177 239.856 68.468 240.446 66.0779 244.14C64.4283 246.689 64.2033 247.552 64.1471 248.423C64.0866 249.26 64.2688 250.097 64.672 250.833V250.833Z" fill="#0B1E60"/>
<path d="M87.9448 282.544H115.904V302.661H105.013V290.831C104.908 290.025 104.513 289.285 103.902 288.749C103.292 288.213 102.507 287.917 101.695 287.917C100.882 287.917 100.098 288.213 99.487 288.749C98.8765 289.285 98.4819 290.025 98.3768 290.831V302.661H87.9448V282.544Z" fill="#FD4F00"/>
<path d="M98.3674 302.661H87.9448V320.237H98.3674V302.661Z" fill="#F9C400"/>
<path d="M115.913 302.661H105.013V320.237H115.913V302.661Z" fill="#F9C400"/>
<path d="M87.9448 320.237C87.9448 322.112 87.9448 323.93 87.9916 325.777H103.672V324.39L98.4517 322.262L98.3768 320.237" fill="#0C1F5F"/>
<path d="M105.013 320.237V325.777H120.272V324.39L115.585 322.44L115.876 320.237" fill="#0C1F5F"/>
<path d="M440.167 128.681H467.92V137.53C468.033 136.206 468.411 134.919 469.033 133.745C469.655 132.571 470.507 131.534 471.538 130.697C473.32 129.323 475.523 128.611 477.771 128.681V153.419C477.723 156.112 476.623 158.679 474.706 160.571C473.611 161.579 472.314 162.341 470.902 162.808C469.49 163.275 467.994 163.436 466.514 163.28H440.167V190.23H430.719C430.632 180.313 430.551 170.398 430.476 160.487C430.543 158.933 431.079 157.437 432.013 156.194C433.016 155.007 434.324 154.118 435.796 153.622C437.268 153.127 438.848 153.043 440.364 153.382L440.167 128.681Z" fill="#FD4F00"/>
<path d="M477.771 128.681C480.176 128.721 482.502 129.55 484.39 131.04C486.278 132.531 487.624 134.6 488.222 136.93V142.358H482.992V137.737H477.762L477.771 128.681Z" fill="#F9C400"/>
<path d="M430.719 190.23V199.829H434.29C435.615 199.439 436.822 198.727 437.805 197.758C440.683 194.861 440.242 190.812 440.167 190.212" fill="#F9C400"/>
<path d="M447.319 173.91C447.441 174.67 448.415 175.026 448.865 175.354C451.499 177.229 454.17 179.15 456.804 178.466C459.897 177.66 462.859 173.264 461.359 168.989C460.669 167.154 459.298 165.656 457.531 164.805C455.765 163.955 453.739 163.819 451.874 164.424C448.687 165.614 446.85 169.42 447.356 170.826C447.532 171.222 447.628 171.649 447.637 172.082C447.656 172.992 447.225 173.339 447.319 173.91Z" fill="#F9C400"/>
<path d="M452.221 174.013C452.661 174.013 453.017 173.657 453.017 173.217C453.017 172.777 452.661 172.42 452.221 172.42C451.781 172.42 451.424 172.777 451.424 173.217C451.424 173.657 451.781 174.013 452.221 174.013Z" fill="#0B1E60"/>
<path d="M463.787 172.392C463.693 171.708 463.428 171.059 463.017 170.506C462.606 169.952 462.061 169.511 461.434 169.223C461.134 169.058 460.802 168.961 460.46 168.938C460.118 168.916 459.776 168.968 459.457 169.092C459.225 169.227 459.023 169.407 458.862 169.621C458.701 169.835 458.585 170.079 458.519 170.339C458.079 171.895 459.691 172.654 459.457 173.995C459.175 175.598 456.448 176.807 454.686 177.219C453.58 177.463 452.717 177.416 452.249 178.157C452.058 178.451 451.956 178.795 451.956 179.146C451.956 179.497 452.058 179.84 452.249 180.135C452.802 180.922 453.992 180.875 454.611 180.847C455.229 180.819 456.485 180.66 460.01 178.101C462.475 176.329 463.018 175.626 463.374 174.82C463.74 174.066 463.883 173.224 463.787 172.392V172.392Z" fill="#FD4F00"/>
<path d="M462.793 128.681H460.919V163.28H462.793V128.681Z" fill="#0B1E60"/>
<path d="M447.797 128.681H445.922V163.28H447.797V128.681Z" fill="#0B1E60"/>
<path d="M467.808 119.251H440.167V128.681H467.808V119.251Z" fill="#FD4F00"/>
<path d="M467.808 127.744H440.167V129.619H467.808V127.744Z" fill="#0B1E60"/>
<path d="M467.808 119.251H440.167V125.832H467.808V119.251Z" fill="#0B1E60"/>
<defs>
<linearGradient id="paint0_linear" x1="547.43" y1="784.62" x2="542.115" y2="775.415" gradientUnits="userSpaceOnUse">
<stop stop-color="#0B1E60" stop-opacity="0"/>
<stop offset="0.11" stop-color="#3D4C80" stop-opacity="0.2"/>
<stop offset="0.24" stop-color="#6F7BA1" stop-opacity="0.41"/>
<stop offset="0.37" stop-color="#9BA3BE" stop-opacity="0.59"/>
<stop offset="0.5" stop-color="#BFC4D6" stop-opacity="0.74"/>
<stop offset="0.63" stop-color="#DBDEE8" stop-opacity="0.85"/>
<stop offset="0.75" stop-color="#EFF0F5" stop-opacity="0.93"/>
<stop offset="0.88" stop-color="#FBFBFC" stop-opacity="0.98"/>
<stop offset="1" stop-color="white"/>
</linearGradient>
</defs>
</svg>
