<svg width="470" height="338" viewBox="0 0 470 338" fill="none" xmlns="http://www.w3.org/2000/svg">
<path d="M469.46 278.91V312.14H291.3V278.91H353.15V202.6H419.92L456.8 268.6L469.46 278.91Z" fill="#0B1E60"/>
<path d="M353.08 191.39H348.35V278.91H353.08V191.39Z" fill="#FD4F00"/>
<path d="M353.14 247.08H348.35V249.05H353.14V247.08Z" fill="#0B1F61"/>
<path d="M353.14 252.08H348.35V254.05H353.14V252.08Z" fill="#0B1F61"/>
<path d="M371.66 213.8H360.44V215.8H371.66V213.8Z" fill="#FD4F00"/>
<path d="M371.66 217.8H360.44V219.8H371.66V217.8Z" fill="#FD4F00"/>
<path d="M371.66 221.8H360.44V223.8H371.66V221.8Z" fill="#FD4F00"/>
<path d="M371.66 225.8H360.44V227.8H371.66V225.8Z" fill="#FD4F00"/>
<path d="M426.74 214.8H389.06V262.16H446.52L449.35 255.26L426.74 214.8Z" fill="white"/>
<path d="M389.5 262.17H387.5V309.08H389.5V262.17Z" fill="#FD4F00"/>
<path d="M469.46 308.08H291.3V310.08H469.46V308.08Z" fill="#FD4F00"/>
<path d="M445.74 266.09H433.62V268.09H445.74V266.09Z" fill="#FD4F00"/>
<path d="M469.47 294.1H462.75V296.1H469.47V294.1Z" fill="#F9C400"/>
<path d="M433.62 257.22V264.29H445.74C445.378 262.61 444.54 261.07 443.325 259.855C442.11 258.64 440.57 257.802 438.89 257.44L433.62 257.22Z" fill="#FD4F00"/>
<path d="M469.47 297.98H462.75V304.7H469.47V297.98Z" fill="white"/>
<path d="M391.86 229.9C391.97 230.5 392.52 230.7 392.86 231.63C392.998 232.073 393.046 232.539 393 233C393 234.61 396.18 237.78 399.81 237.86C401.214 237.83 402.586 237.438 403.793 236.721C405 236.005 406.002 234.988 406.7 233.77C407.387 232.603 407.749 231.274 407.75 229.92C407.75 225.09 403.22 221.7 399.81 221.98C398.882 222.077 397.998 222.422 397.25 222.98C395.535 224.391 394.071 226.081 392.92 227.98C392.57 228.39 391.72 229.09 391.86 229.9Z" fill="#F9C400"/>
<path d="M397.57 228.53C397.946 228.53 398.25 228.225 398.25 227.85C398.25 227.474 397.946 227.17 397.57 227.17C397.194 227.17 396.89 227.474 396.89 227.85C396.89 228.225 397.194 228.53 397.57 228.53Z" fill="#0B1E60"/>
<path d="M397.24 222.94C397.917 223.522 398.684 223.991 399.51 224.33C400.608 224.782 401.794 224.98 402.98 224.91C403.176 225.392 403.272 225.909 403.26 226.43C403.252 226.727 403.208 227.023 403.13 227.31C403.114 227.425 403.126 227.542 403.164 227.652C403.202 227.761 403.266 227.86 403.35 227.94C403.41 227.98 403.477 228.007 403.548 228.018C403.619 228.03 403.692 228.026 403.761 228.007C403.83 227.988 403.894 227.954 403.949 227.908C404.005 227.862 404.049 227.805 404.08 227.74C404.262 227.876 404.412 228.05 404.52 228.25C404.688 228.588 404.764 228.964 404.74 229.34C404.615 229.539 404.424 229.688 404.2 229.76C404.084 229.794 403.962 229.801 403.843 229.782C403.723 229.763 403.61 229.718 403.51 229.65C403.268 230.019 403.136 230.449 403.13 230.89C403.168 231.521 403.439 232.116 403.89 232.56C404.235 232.959 404.667 233.273 405.152 233.479C405.637 233.685 406.163 233.778 406.69 233.75C407.377 232.583 407.739 231.254 407.74 229.9C407.74 225.07 403.21 221.68 399.8 221.96C398.874 222.051 397.99 222.389 397.24 222.94Z" fill="#FD4F00"/>
<path d="M398.56 220.59C395.88 221.29 395.12 222.39 394.92 222.72C394.383 223.655 394.189 224.747 394.37 225.81H411.32V224.59H407C407 223.36 407 222.13 407 220.9C404.27 220.016 401.348 219.909 398.56 220.59Z" fill="#000C6F"/>
<path d="M409.42 231.38C411.027 231.38 412.33 230.14 412.33 228.61C412.33 227.08 411.027 225.84 409.42 225.84C407.813 225.84 406.51 227.08 406.51 228.61C406.51 230.14 407.813 231.38 409.42 231.38Z" fill="#FD4F00"/>
<path d="M389.06 238.13H408.47C410.252 238.299 411.906 239.127 413.11 240.451C414.314 241.775 414.981 243.5 414.98 245.29V262.17H389.06V238.13Z" fill="#00B3E3"/>
<path d="M394.74 238.13C394.842 239.512 395.464 240.804 396.479 241.747C397.495 242.69 398.829 243.214 400.215 243.214C401.601 243.214 402.935 242.69 403.951 241.747C404.966 240.804 405.588 239.512 405.69 238.13" fill="#0B1E60"/>
<path d="M389.06 238C386.592 237.849 384.146 238.539 382.121 239.957C380.096 241.376 378.611 243.439 377.91 245.81V254C377.936 255.85 378.573 257.639 379.72 259.09C380.454 259.973 381.356 260.701 382.374 261.232C383.392 261.762 384.506 262.085 385.65 262.18H412.85C412.922 260.481 412.542 258.794 411.75 257.29C408.85 251.9 401.58 251.85 401.28 251.86L389.06 251.98V238Z" fill="#F9C400"/>
<path d="M398.96 251.86H396.96V262.16H398.96V251.86Z" fill="#0B1E60"/>
<path d="M322.23 337.56C333.679 337.56 342.96 328.279 342.96 316.83C342.96 305.381 333.679 296.1 322.23 296.1C310.781 296.1 301.5 305.381 301.5 316.83C301.5 328.279 310.781 337.56 322.23 337.56Z" fill="#0B1E60"/>
<path d="M412.85 262.17H406.95V266.18H412.85V262.17Z" fill="#F9C400"/>
<path d="M415 255.12H422.16C423.29 255.102 424.411 255.327 425.447 255.781C426.482 256.235 427.407 256.906 428.16 257.75C429.194 259 429.797 260.55 429.88 262.17H415V255.12Z" fill="#F9C400"/>
<path d="M322.23 326C327.294 326 331.4 321.894 331.4 316.83C331.4 311.766 327.294 307.66 322.23 307.66C317.166 307.66 313.06 311.766 313.06 316.83C313.06 321.894 317.166 326 322.23 326Z" fill="#F9C400"/>
<path d="M322.23 319.37C323.633 319.37 324.77 318.233 324.77 316.83C324.77 315.427 323.633 314.29 322.23 314.29C320.827 314.29 319.69 315.427 319.69 316.83C319.69 318.233 320.827 319.37 322.23 319.37Z" fill="#0B1E60"/>
<path d="M322.23 331.15C319.398 331.15 316.629 330.31 314.274 328.737C311.919 327.163 310.084 324.927 309 322.31C307.916 319.693 307.633 316.814 308.185 314.036C308.738 311.258 310.102 308.707 312.104 306.704C314.107 304.702 316.658 303.338 319.436 302.785C322.214 302.233 325.093 302.516 327.71 303.6C330.327 304.684 332.563 306.519 334.137 308.874C335.71 311.229 336.55 313.998 336.55 316.83C336.547 320.627 335.038 324.268 332.353 326.953C329.668 329.638 326.027 331.147 322.23 331.15V331.15ZM322.23 303.51C319.596 303.51 317.02 304.291 314.83 305.755C312.639 307.218 310.932 309.299 309.924 311.733C308.916 314.167 308.652 316.845 309.166 319.429C309.68 322.012 310.948 324.386 312.811 326.249C314.674 328.111 317.048 329.38 319.631 329.894C322.215 330.408 324.893 330.144 327.327 329.136C329.761 328.128 331.842 326.421 333.305 324.23C334.769 322.04 335.55 319.464 335.55 316.83C335.547 313.298 334.143 309.912 331.646 307.414C329.148 304.917 325.762 303.513 322.23 303.51Z" fill="#F9C400"/>
<path d="M439.23 337.56C450.679 337.56 459.96 328.279 459.96 316.83C459.96 305.381 450.679 296.1 439.23 296.1C427.781 296.1 418.5 305.381 418.5 316.83C418.5 328.279 427.781 337.56 439.23 337.56Z" fill="#0B1E60"/>
<path d="M439.23 326C444.294 326 448.4 321.894 448.4 316.83C448.4 311.766 444.294 307.66 439.23 307.66C434.166 307.66 430.06 311.766 430.06 316.83C430.06 321.894 434.166 326 439.23 326Z" fill="#F9C400"/>
<path d="M439.23 331.15C436.398 331.15 433.629 330.31 431.274 328.737C428.919 327.163 427.084 324.927 426 322.31C424.916 319.693 424.633 316.814 425.185 314.036C425.738 311.258 427.102 308.707 429.104 306.704C431.107 304.702 433.658 303.338 436.436 302.785C439.214 302.233 442.093 302.516 444.71 303.6C447.327 304.684 449.563 306.519 451.137 308.874C452.71 311.229 453.55 313.998 453.55 316.83C453.547 320.627 452.038 324.268 449.353 326.953C446.668 329.638 443.027 331.147 439.23 331.15V331.15ZM439.23 303.51C436.596 303.51 434.02 304.291 431.83 305.755C429.639 307.218 427.932 309.299 426.924 311.733C425.916 314.167 425.652 316.845 426.166 319.429C426.68 322.012 427.948 324.386 429.811 326.249C431.674 328.111 434.048 329.38 436.631 329.894C439.215 330.408 441.893 330.144 444.327 329.136C446.761 328.128 448.842 326.421 450.305 324.23C451.769 322.04 452.55 319.464 452.55 316.83C452.547 313.298 451.143 309.912 448.646 307.414C446.148 304.917 442.762 303.513 439.23 303.51Z" fill="#F9C400"/>
<path d="M439.23 319.37C440.633 319.37 441.77 318.233 441.77 316.83C441.77 315.427 440.633 314.29 439.23 314.29C437.827 314.29 436.69 315.427 436.69 316.83C436.69 318.233 437.827 319.37 439.23 319.37Z" fill="#0B1E60"/>
<path d="M283.73 314.79H39.59V315.79H283.73V314.79Z" fill="#0B1E60"/>
<path d="M283.21 324.25H283C282.03 324.189 281.108 323.804 280.383 323.156C279.658 322.509 279.171 321.637 279 320.68V312.15H280V320.59C280.14 321.343 280.539 322.024 281.128 322.514C281.717 323.004 282.459 323.272 283.225 323.272C283.991 323.272 284.733 323.004 285.322 322.514C285.911 322.024 286.31 321.343 286.45 320.59C286.28 298.82 286.32 282.31 286.45 278.91C286.439 277.46 286.922 276.049 287.82 274.91C288.698 273.892 289.904 273.212 291.23 272.99H296C296.961 272.935 297.918 273.158 298.755 273.634C299.593 274.109 300.275 274.816 300.72 275.67C301.202 276.742 301.263 277.956 300.89 279.07L299.94 278.77C300.232 277.896 300.189 276.944 299.82 276.1C299.455 275.418 298.899 274.857 298.221 274.484C297.543 274.111 296.772 273.943 296 274H291.3C290.24 274.209 289.28 274.765 288.57 275.58C287.83 276.547 287.433 277.732 287.44 278.95C287.31 282.34 287.27 298.86 287.44 320.64V320.74C287.248 321.723 286.722 322.61 285.951 323.25C285.18 323.89 284.212 324.243 283.21 324.25Z" fill="#0B1E60"/>
<path d="M283.73 298.61H39.59V312.14H283.73V298.61Z" fill="#FD4F00"/>
<path d="M82.23 337.56C92.0883 337.56 100.08 329.568 100.08 319.71C100.08 309.852 92.0883 301.86 82.23 301.86C72.3717 301.86 64.38 309.852 64.38 319.71C64.38 329.568 72.3717 337.56 82.23 337.56Z" fill="#0B1E60"/>
<path d="M82.23 323.56C84.3563 323.56 86.08 321.836 86.08 319.71C86.08 317.584 84.3563 315.86 82.23 315.86C80.1037 315.86 78.38 317.584 78.38 319.71C78.38 321.836 80.1037 323.56 82.23 323.56Z" fill="#0B1E60"/>
<path d="M241.23 337.56C251.088 337.56 259.08 329.568 259.08 319.71C259.08 309.852 251.088 301.86 241.23 301.86C231.372 301.86 223.38 309.852 223.38 319.71C223.38 329.568 231.372 337.56 241.23 337.56Z" fill="#0B1E60"/>
<path d="M44.87 304.74H39.59V310.02H44.87V304.74Z" fill="#F9C400"/>
<path d="M241.23 329C246.294 329 250.4 324.894 250.4 319.83C250.4 314.766 246.294 310.66 241.23 310.66C236.166 310.66 232.06 314.766 232.06 319.83C232.06 324.894 236.166 329 241.23 329Z" fill="#F9C400"/>
<path d="M241.23 322.37C242.633 322.37 243.77 321.233 243.77 319.83C243.77 318.427 242.633 317.29 241.23 317.29C239.827 317.29 238.69 318.427 238.69 319.83C238.69 321.233 239.827 322.37 241.23 322.37Z" fill="#0B1E60"/>
<path d="M82.23 329C87.2945 329 91.4 324.894 91.4 319.83C91.4 314.766 87.2945 310.66 82.23 310.66C77.1656 310.66 73.06 314.766 73.06 319.83C73.06 324.894 77.1656 329 82.23 329Z" fill="#F9C400"/>
<path d="M82.23 322.37C83.6328 322.37 84.77 321.233 84.77 319.83C84.77 318.427 83.6328 317.29 82.23 317.29C80.8272 317.29 79.69 318.427 79.69 319.83C79.69 321.233 80.8272 322.37 82.23 322.37Z" fill="#0B1E60"/>
<path d="M308.19 170.7C307.97 171.9 307.73 173.1 307.48 174.33C307.35 174.99 307.22 175.66 307.07 176.33C306.54 178.94 305.95 181.61 305.32 184.33L304.84 186.33C304.213 188.95 303.547 191.617 302.84 194.33C302.67 194.99 302.49 195.66 302.3 196.33C301.58 198.96 300.82 201.63 299.99 204.33C299.79 205 299.59 205.66 299.38 206.33C298.573 208.963 297.71 211.63 296.79 214.33C296.57 214.99 296.34 215.66 296.11 216.33C295.203 218.997 294.243 221.663 293.23 224.33C292.98 224.99 292.72 225.66 292.47 226.33C291.47 228.96 290.4 231.63 289.29 234.33C289.01 235 288.74 235.67 288.46 236.33C287.307 239.05 286.137 241.717 284.95 244.33C284.65 245 284.34 245.67 284.04 246.33C282.78 249.057 281.503 251.723 280.21 254.33C279.87 255 279.54 255.67 279.21 256.33C277.817 259.07 276.42 261.737 275.02 264.33C274.66 265.01 274.3 265.67 273.94 266.33C272.433 269.083 270.92 271.75 269.4 274.33C269 275.01 268.61 275.67 268.21 276.33C266.557 279.097 264.913 281.763 263.28 284.33C262.85 285 262.43 285.67 262 286.33C260.92 288 259.84 289.63 258.78 291.21C257.678 292.853 256.191 294.2 254.447 295.135C252.704 296.069 250.758 296.562 248.78 296.57L74.13 296.91C72.3816 296.911 70.6537 296.534 69.0642 295.806C67.4747 295.077 66.0611 294.015 64.92 292.69C63.18 290.69 61.4 288.55 59.6 286.33C59.05 285.67 58.51 285.01 57.97 284.33C55.93 281.79 53.8633 279.123 51.77 276.33L50.27 274.33C48.3767 271.757 46.48 269.09 44.58 266.33L43.2 264.33C41.4533 261.75 39.7033 259.083 37.95 256.33L36.69 254.33C35.07 251.737 33.46 249.07 31.86 246.33L30.7 244.33C29.2067 241.73 27.73 239.063 26.27 236.33L25.21 234.33C23.8033 231.663 22.4533 228.997 21.16 226.33C20.83 225.66 20.51 224.99 20.16 224.33C18.86 221.64 17.63 218.97 16.45 216.33C16.16 215.66 15.86 215 15.57 214.33C14.39 211.63 13.27 208.963 12.21 206.33C11.93 205.66 11.67 204.99 11.41 204.33C10.33 201.63 9.32001 198.96 8.41001 196.33C8.16001 195.66 7.92001 194.99 7.69001 194.33C6.72334 191.617 5.81001 188.95 4.95001 186.33C4.73001 185.66 4.52001 185 4.31001 184.33C3.43001 181.61 2.61667 178.943 1.87001 176.33C1.67001 175.66 1.48001 174.99 1.29001 174.33C1.04001 173.41 0.780007 172.51 0.540007 171.61C0.0652574 169.89 -0.0201477 168.087 0.290007 166.33C0.40189 165.649 0.575951 164.979 0.810007 164.33C1.65161 161.985 3.19791 159.957 5.23701 158.525C7.2761 157.092 9.7082 156.326 12.2 156.33H296.31C298.8 156.329 301.229 157.097 303.266 158.529C305.303 159.961 306.848 161.987 307.69 164.33C307.932 164.978 308.109 165.648 308.22 166.33C308.475 167.776 308.465 169.257 308.19 170.7V170.7Z" fill="#F9C400"/>
<path d="M307.48 174.33C307.35 174.99 307.22 175.66 307.07 176.33H1.75999C1.55999 175.66 1.36999 174.99 1.17999 174.33H307.48Z" fill="#FD4F00"/>
<path d="M305.32 184.33L304.84 186.33H4.84001C4.62001 185.66 4.41001 185 4.20001 184.33H305.32Z" fill="#FD4F00"/>
<path d="M302.8 194.33C302.63 194.99 302.45 195.66 302.26 196.33H8.30002C8.05002 195.66 7.81002 194.99 7.58002 194.33H302.8Z" fill="#FD4F00"/>
<path d="M300 204.33C299.8 205 299.6 205.66 299.39 206.33H12.15C11.87 205.66 11.61 204.99 11.35 204.33H300Z" fill="#FD4F00"/>
<path d="M308.22 166.33H0.179993C0.291876 165.649 0.465937 164.979 0.699993 164.33H307.7C307.939 164.978 308.113 165.648 308.22 166.33V166.33Z" fill="#FD4F00"/>
<path d="M296.75 214.33C296.53 214.99 296.3 215.66 296.07 216.33H16.39C16.1 215.66 15.8 215 15.51 214.33H296.75Z" fill="#FD4F00"/>
<path d="M293.19 224.33C292.94 224.99 292.68 225.66 292.43 226.33H21.07C20.74 225.66 20.42 224.99 20.07 224.33H293.19Z" fill="#FD4F00"/>
<path d="M289.24 234.33C288.96 235 288.69 235.67 288.41 236.33H26.19L25.13 234.33H289.24Z" fill="#FD4F00"/>
<path d="M77 244.33L76.22 246.33H31.78L30.62 244.33H77Z" fill="#FD4F00"/>
<path d="M284.9 244.33C284.6 245 284.29 245.67 283.99 246.33H81.44L80.36 244.33H284.9Z" fill="#FD4F00"/>
<path d="M280.16 254.33C279.82 255 279.49 255.67 279.16 256.33H37.87L36.61 254.33H280.16Z" fill="#FD4F00"/>
<path d="M275 264.33C274.64 265.01 274.28 265.67 273.92 266.33H44.5L43.12 264.33H275Z" fill="#FD4F00"/>
<path d="M269.35 274.33C268.95 275.01 268.56 275.67 268.16 276.33H51.69L50.19 274.33H269.35Z" fill="#FD4F00"/>
<path d="M263.23 284.33C262.8 285 262.38 285.67 261.95 286.33H59.52C58.97 285.67 58.43 285.01 57.89 284.33H263.23Z" fill="#FD4F00"/>
<path d="M243.34 93.07H108.17C90.7012 93.07 76.54 107.231 76.54 124.7V124.71C76.54 142.179 90.7012 156.34 108.17 156.34H243.34C260.809 156.34 274.97 142.179 274.97 124.71V124.7C274.97 107.231 260.809 93.07 243.34 93.07Z" fill="#0B1E60"/>
<path d="M228.6 156.33H98.87V220.15H39.59V113.83H182.33C184.22 113.71 200.62 112.93 213.75 123.7C214.51 124.32 215.27 124.99 216 125.7C217.262 126.906 218.442 128.195 219.53 129.56C225.489 137.203 228.686 146.639 228.6 156.33V156.33Z" fill="#00B3E3"/>
<path d="M98.87 220.15V250.15L83.45 250.07L81.44 246.33L80.36 244.33L78.38 240.65L76.95 244.33L76.17 246.33L74.68 250.15H39.59V220.15H98.87Z" fill="white"/>
<path d="M88.45 199.34C90.5432 199.34 92.24 197.643 92.24 195.55C92.24 193.457 90.5432 191.76 88.45 191.76C86.3568 191.76 84.66 193.457 84.66 195.55C84.66 197.643 86.3568 199.34 88.45 199.34Z" fill="#0B1E60"/>
<path d="M88.45 213.34C90.5432 213.34 92.24 211.643 92.24 209.55C92.24 207.457 90.5432 205.76 88.45 205.76C86.3568 205.76 84.66 207.457 84.66 209.55C84.66 211.643 86.3568 213.34 88.45 213.34Z" fill="#0B1E60"/>
<path d="M88.45 239.34C90.5432 239.34 92.24 237.643 92.24 235.55C92.24 233.457 90.5432 231.76 88.45 231.76C86.3568 231.76 84.66 233.457 84.66 235.55C84.66 237.643 86.3568 239.34 88.45 239.34Z" fill="#0B1E60"/>
<path opacity="0.3" d="M100.37 145.82H99.37V156.33H100.37V145.82Z" fill="#0B1E60"/>
<path d="M243.92 123.7V125.7H216C215.27 124.99 214.51 124.32 213.75 123.7H243.92Z" fill="white"/>
<path d="M186.45 180.46H121.74C116.526 180.46 112.3 184.686 112.3 189.9C112.3 195.114 116.526 199.34 121.74 199.34H186.45C191.664 199.34 195.89 195.114 195.89 189.9C195.89 184.686 191.664 180.46 186.45 180.46Z" fill="#0B1E60"/>
<path d="M391.86 229.9C391.97 230.5 392.52 230.7 392.86 231.63C392.998 232.073 393.046 232.539 393 233C393 234.61 396.18 237.78 399.81 237.86C401.214 237.83 402.586 237.438 403.793 236.721C405 236.005 406.002 234.988 406.7 233.77C407.387 232.603 407.749 231.274 407.75 229.92C407.75 225.09 403.22 221.7 399.81 221.98C398.882 222.077 397.998 222.422 397.25 222.98C395.535 224.391 394.071 226.081 392.92 227.98C392.57 228.39 391.72 229.09 391.86 229.9Z" fill="#F9C400"/>
<path d="M397.57 228.53C397.946 228.53 398.25 228.225 398.25 227.85C398.25 227.474 397.946 227.17 397.57 227.17C397.194 227.17 396.89 227.474 396.89 227.85C396.89 228.225 397.194 228.53 397.57 228.53Z" fill="#0B1E60"/>
<path d="M397.24 222.94C397.917 223.522 398.684 223.991 399.51 224.33C400.608 224.782 401.794 224.98 402.98 224.91C403.176 225.392 403.272 225.909 403.26 226.43C403.252 226.727 403.208 227.023 403.13 227.31C403.13 227.47 403.13 227.87 403.35 227.94C403.57 228.01 403.66 227.76 403.96 227.79C404.077 227.803 404.188 227.848 404.28 227.92C404.374 228.019 404.455 228.13 404.52 228.25C404.689 228.615 404.752 229.021 404.7 229.42C404.649 229.511 404.577 229.59 404.49 229.649C404.403 229.708 404.304 229.746 404.2 229.76C403.9 229.83 403.71 229.55 403.53 229.66C403.485 229.688 403.45 229.73 403.43 229.78C403.235 230.118 403.132 230.5 403.13 230.89C403.166 231.522 403.437 232.117 403.89 232.56C404.235 232.959 404.667 233.273 405.152 233.479C405.637 233.685 406.163 233.778 406.69 233.75C407.377 232.583 407.739 231.254 407.74 229.9C407.74 225.07 403.21 221.68 399.8 221.96C398.874 222.051 397.99 222.389 397.24 222.94V222.94Z" fill="#FD4F00"/>
<path d="M398.56 220.59C395.88 221.29 395.12 222.39 394.92 222.72C394.383 223.655 394.189 224.747 394.37 225.81H411.32V224.59H407C407 223.36 407 222.13 407 220.9C404.27 220.016 401.348 219.909 398.56 220.59Z" fill="#000C6F"/>
<path d="M409.42 231.38C411.027 231.38 412.33 230.14 412.33 228.61C412.33 227.08 411.027 225.84 409.42 225.84C407.813 225.84 406.51 227.08 406.51 228.61C406.51 230.14 407.813 231.38 409.42 231.38Z" fill="#FD4F00"/>
<path d="M429.51 284.87C429.385 282.734 428.57 280.695 427.188 279.061C425.806 277.427 423.931 276.286 421.845 275.808C419.759 275.33 417.574 275.542 415.619 276.411C413.663 277.281 412.043 278.761 411 280.63L410.57 281.38L411 282.12C411.389 282.828 411.65 283.6 411.77 284.4C411.824 284.731 411.85 285.065 411.85 285.4C411.851 286.58 411.548 287.741 410.97 288.77L410.55 289.51L410.97 290.26C412.042 292.167 413.717 293.664 415.731 294.518C417.745 295.371 419.986 295.533 422.102 294.977C424.218 294.422 426.09 293.18 427.425 291.447C428.76 289.714 429.483 287.588 429.48 285.4C429.53 285.28 429.52 285.07 429.51 284.87ZM428.01 285.87C428.01 285.87 428.01 285.95 428.01 285.99C428.01 285.99 428.01 286.08 428.01 286.12C427.135 285.524 426.143 285.122 425.1 284.94C424.672 284.88 424.238 284.88 423.81 284.94V284.94C422.1 285.17 421.35 286.27 419.38 286.54C419.167 286.54 418.947 286.56 418.72 286.6C418.256 286.624 417.791 286.608 417.33 286.55C416.99 286.507 416.655 286.43 416.33 286.32C415.2 285.96 414.92 285.5 413.93 285.22C413.763 285.169 413.593 285.132 413.42 285.11C413.412 284.855 413.389 284.602 413.35 284.35C413.355 284.317 413.355 284.283 413.35 284.25C413.202 283.271 412.88 282.326 412.4 281.46C412.403 281.44 412.403 281.42 412.4 281.4C413.349 279.721 414.848 278.42 416.643 277.715C418.439 277.01 420.422 276.945 422.26 277.53C423.887 277.945 425.335 278.879 426.384 280.191C427.432 281.503 428.024 283.121 428.07 284.8V285C428.07 285.17 428.07 285.35 428.07 285.53C428.07 285.71 428 285.74 428 285.86L428.01 285.87Z" fill="white"/>
<path d="M182.18 27.26C181.78 27.72 181.97 28.26 181.45 29.11C181.205 29.5047 180.882 29.845 180.5 30.11C179.25 31.11 178.82 35.6 181.05 38.46C181.962 39.5284 183.134 40.343 184.454 40.8248C185.773 41.3066 187.194 41.4393 188.58 41.21C189.916 41.0047 191.173 40.4453 192.22 39.59C195.96 36.53 195.72 30.8799 193.35 28.4099C192.704 27.7417 191.894 27.2554 191 27C188.834 26.5579 186.609 26.4869 184.42 26.7899C183.79 26.8499 182.71 26.64 182.18 27.26Z" fill="#F9C400"/>
<path d="M187.38 31.06C187.756 31.06 188.06 30.7555 188.06 30.38C188.06 30.0044 187.756 29.7 187.38 29.7C187.004 29.7 186.7 30.0044 186.7 30.38C186.7 30.7555 187.004 31.06 187.38 31.06Z" fill="#0B1E60"/>
<path d="M190.12 27.08C189.67 27.72 190.18 28.85 190.83 29.91C191.374 30.7845 191.979 31.6198 192.64 32.41C192.657 32.958 192.455 33.4903 192.08 33.89C191.865 34.1039 191.6 34.2617 191.31 34.35C191.198 34.3965 191.106 34.4806 191.05 34.5878C190.993 34.6949 190.976 34.8184 191.001 34.9369C191.026 35.0555 191.091 35.1616 191.186 35.237C191.281 35.3124 191.399 35.3523 191.52 35.35H191.61C191.72 35.46 191.61 35.79 191.46 35.98C191.374 36.129 191.258 36.258 191.118 36.358C190.978 36.4581 190.819 36.527 190.65 36.56C190.563 36.5836 190.471 36.5887 190.382 36.5749C190.292 36.5612 190.206 36.5288 190.13 36.48C189.99 36.35 189.99 36.09 189.88 36.08H189.74C189.302 36.1292 188.887 36.2988 188.54 36.57C188.076 37.0013 187.787 37.5889 187.73 38.22C187.638 38.7393 187.667 39.2727 187.815 39.779C187.962 40.2853 188.224 40.751 188.58 41.14C189.505 40.9954 190.396 40.6836 191.21 40.22C191.561 40.0124 191.895 39.7785 192.21 39.52C193.196 38.7439 194.045 37.8075 194.72 36.75C195.424 35.3685 195.727 33.8175 195.594 32.2728C195.461 30.7281 194.899 29.2514 193.97 28.01C193.462 27.2716 192.688 26.759 191.81 26.58C191.68 26.6 190.56 26.46 190.12 27.08Z" fill="#000C6F"/>
<path d="M198.038 30.0255C199.223 29.0575 199.359 27.264 198.342 26.0194C197.325 24.7749 195.54 24.5506 194.356 25.5186C193.171 26.4865 193.035 28.28 194.052 29.5246C195.069 30.7692 196.853 30.9934 198.038 30.0255Z" fill="#000C6F"/>
<path d="M152.17 9.99997L170.56 28.39L163 35.92L150.13 23.05C149.324 21.8795 148.778 20.5508 148.526 19.1524C148.274 17.754 148.323 16.3179 148.67 14.94C149.267 12.956 150.496 11.2214 152.17 9.99997Z" fill="#0B1E60"/>
<path d="M210.42 68.21L192 49.81L184.42 57.39L197.29 70.26C198.46 71.0655 199.789 71.6124 201.188 71.8642C202.586 72.1159 204.022 72.0667 205.4 71.7199C207.413 71.1315 209.176 69.8984 210.42 68.21V68.21Z" fill="#0B1E60"/>
<path d="M192 49.81L174 67.4799L172.06 69.39L166.46 63.86L157.73 55.24L151.35 48.93L151.11 48.69C151.74 48.03 152.37 47.38 152.99 46.69L170.57 28.3L192 49.81Z" fill="#FD4F00"/>
<path d="M167.35 44.06C164.95 47.47 165.93 51.95 168.81 53.74C170.051 54.4228 171.478 54.694 172.883 54.5143C174.288 54.3345 175.6 53.7132 176.63 52.74L186.09 43.84L176.33 34.08L167.35 44.06Z" fill="#0B1E60"/>
<path d="M177.05 34.83L174.26 46.07L185.46 43.24L177.05 34.83Z" fill="white"/>
<path d="M174 67.4799L172.06 69.39L166.46 63.86L157.73 55.24L151.35 48.93L151.11 48.69C151.74 48.03 152.37 47.38 152.99 46.69L159.74 53.36L164 57.56L165.93 59.4799L168.05 61.57L174 67.4799Z" fill="#0B1E60"/>
<path d="M172.05 69.39L141.74 39.52L133.64 47.63L146.44 60.42C146.803 60.7449 147.095 61.1404 147.3 61.5823C147.504 62.0242 147.617 62.5032 147.63 62.99C147.643 63.4767 147.557 63.961 147.376 64.4133C147.196 64.8656 146.925 65.2763 146.58 65.6203C146.235 65.9643 145.824 66.2343 145.372 66.4139C144.919 66.5935 144.434 66.6789 143.948 66.6648C143.461 66.6508 142.982 66.5375 142.541 66.3321C142.099 66.1266 141.704 65.8333 141.38 65.4699L128.1 52.19L120.1 60.19L139.84 79.93C142.813 82.6325 146.724 84.0677 150.74 83.93C154.173 83.7523 157.444 82.4163 160.02 80.14L172.05 69.39Z" fill="#FD4F00"/>
<path d="M141.74 39.52L134.82 32.5999L136.96 28.34L135.66 26.18L123.95 37.88L133.67 47.5999" fill="#0B1E60"/>
<path d="M128.1 52.19L121.32 45.19L123.46 40.94L122.16 38.77L110.45 50.4799L120.17 60.2" fill="#0B1E60"/>
<path d="M159.44 17.2199L171.86 4.79996L167.94 0.869965L165.44 3.36996L157.62 4.57999L152.17 9.94998L159.44 17.2199Z" fill="#F9C400"/>
<path d="M203.2 60.95L215.62 48.53L219.54 52.45L217.04 54.95L215.84 62.77L210.47 68.2199L203.2 60.95Z" fill="#F9C400"/>
</svg>
