<svg width="720" height="631" viewBox="0 0 720 631" fill="none" xmlns="http://www.w3.org/2000/svg">
<path d="M720 315.5C720 459.98 598.263 581.77 432.149 619.16C405.172 625.217 377.765 628.956 350.203 630.34C348.862 630.41 347.521 630.48 346.171 630.53C338.998 630.84 331.771 630.997 324.49 631C311.83 631 299.32 630.53 286.96 629.59C280.103 629.08 273.303 628.43 266.561 627.64C200.991 619.96 140.65 599.45 89.6836 569.4C83.3153 565.65 77.097 561.75 71.0285 557.7C59.9165 550.314 49.1885 542.316 38.8897 533.74C-29.1896 477.08 27.5704 356.14 63.0512 280C158.816 74.5 106.06 0 324.49 0C542.921 0 720 141.25 720 315.5Z" fill="#00B2E3" fill-opacity="0.2118"/>
<g clip-path="url(#clip0)">
<path d="M277.109 133.002H233.411C231.479 133.002 229.627 133.757 228.261 135.101C226.896 136.445 226.128 138.268 226.128 140.168C226.128 142.069 226.896 143.892 228.261 145.236C229.627 146.579 231.479 147.334 233.411 147.334H277.109C279.04 147.334 280.893 146.579 282.258 145.236C283.624 143.892 284.391 142.069 284.391 140.168C284.391 138.268 283.624 136.445 282.258 135.101C280.893 133.757 279.04 133.002 277.109 133.002V133.002Z" fill="#023E8A"/>
<path d="M524.718 90H204.282C202.351 90.0014 200.5 90.7569 199.134 92.1005C197.769 93.4441 197.001 95.266 197 97.1661V512.856C197 514.757 197.767 516.58 199.133 517.925C200.498 519.27 202.35 520.026 204.282 520.027H524.718C525.675 520.027 526.622 519.842 527.506 519.481C528.39 519.121 529.193 518.593 529.869 517.927C530.545 517.261 531.082 516.47 531.447 515.6C531.813 514.73 532.001 513.797 532 512.856V97.1661C532 95.2655 531.233 93.4428 529.867 92.0989C528.501 90.755 526.649 90 524.718 90V90ZM211.564 190.331H517.436V476.976H211.564V190.331ZM517.436 175.999H313.52V104.332H517.436V175.999ZM211.564 104.332H298.955V175.993H211.564V104.332ZM211.564 505.662V491.33H517.436V505.662H211.564Z" fill="#023E8A"/>
<path d="M415.464 161.661H495.589C497.52 161.66 499.372 160.904 500.737 159.561C502.102 158.217 502.87 156.395 502.871 154.495V125.831C502.87 123.93 502.102 122.109 500.737 120.765C499.372 119.421 497.52 118.666 495.589 118.664H415.464C413.532 118.664 411.68 119.419 410.315 120.763C408.949 122.107 408.182 123.93 408.182 125.831V154.501C408.183 156.4 408.951 158.222 410.316 159.564C411.682 160.907 413.533 161.661 415.464 161.661ZM422.746 132.997H488.285V147.329H422.763L422.746 132.997Z" fill="#023E8A"/>
<path d="M364.5 154.501C372.544 154.501 379.064 148.084 379.064 140.168C379.064 132.253 372.544 125.836 364.5 125.836C356.456 125.836 349.936 132.253 349.936 140.168C349.936 148.084 356.456 154.501 364.5 154.501Z" fill="#023E8A"/>
<path d="M364.5 233.322C308.177 233.322 262.545 278.256 262.545 333.664C262.545 360.274 273.286 385.794 292.407 404.609C311.527 423.425 337.46 433.996 364.5 433.996C391.54 433.996 417.473 423.425 436.593 404.609C455.714 385.794 466.455 360.274 466.455 333.664C466.4 278.277 420.784 233.394 364.5 233.322ZM364.5 419.652C347.215 419.652 330.319 414.608 315.947 405.158C301.575 395.708 290.374 382.276 283.76 366.561C277.146 350.846 275.416 333.554 278.789 316.872C282.162 300.189 290.486 284.866 302.709 272.839C314.932 260.813 330.505 252.623 347.458 249.306C364.411 245.989 381.982 247.693 397.951 254.204C413.919 260.715 427.567 271.739 437.168 285.883C446.77 300.027 451.893 316.655 451.891 333.664C451.891 356.473 442.684 378.347 426.295 394.475C409.906 410.603 387.678 419.663 364.5 419.663V419.652Z" fill="#023E8A"/>
<path d="M364.5 261.998C350.097 261.998 336.018 266.201 324.043 274.075C312.067 281.949 302.734 293.141 297.222 306.235C291.71 319.33 290.268 333.739 293.078 347.639C295.888 361.54 302.823 374.309 313.008 384.331C323.192 394.353 336.167 401.178 350.293 403.943C364.419 406.708 379.061 405.289 392.367 399.865C405.674 394.442 417.047 385.256 425.049 373.472C433.05 361.687 437.321 347.832 437.321 333.659C437.321 314.653 429.649 296.426 415.992 282.987C402.336 269.548 383.813 261.998 364.5 261.998V261.998ZM364.5 276.33C379.947 276.347 394.756 282.394 405.678 293.142C416.601 303.891 422.745 318.464 422.763 333.664C422.763 337.466 421.228 341.111 418.497 343.799C415.765 346.487 412.061 347.997 408.198 347.997C404.336 347.997 400.631 346.487 397.9 343.799C395.168 341.111 393.634 337.466 393.634 333.664C393.582 331.797 392.791 330.024 391.431 328.722C390.07 327.42 388.247 326.691 386.349 326.691C384.451 326.691 382.628 327.42 381.268 328.722C379.907 330.024 379.117 331.797 379.064 333.664C379.064 337.466 377.53 341.111 374.798 343.799C372.067 346.487 368.363 347.997 364.5 347.997C360.637 347.997 356.933 346.487 354.202 343.799C351.47 341.111 349.936 337.466 349.936 333.664C349.936 331.764 349.169 329.941 347.803 328.597C346.437 327.253 344.585 326.498 342.654 326.498C340.722 326.498 338.87 327.253 337.504 328.597C336.139 329.941 335.371 331.764 335.371 333.664C335.297 337.418 333.729 340.993 331.006 343.621C328.282 346.25 324.619 347.722 320.804 347.722C316.99 347.722 313.327 346.25 310.603 343.621C307.879 340.993 306.312 337.418 306.237 333.664C306.255 318.464 312.399 303.891 323.322 293.142C334.244 282.394 349.053 276.347 364.5 276.33ZM364.5 390.999C354.084 390.985 343.862 388.225 334.897 383.007C325.931 377.789 318.55 370.303 313.52 361.328C318.73 362.753 324.247 362.672 329.411 361.094C334.576 359.515 339.169 356.507 342.642 352.428C345.095 355.251 348.089 357.572 351.453 359.257C354.817 360.941 358.485 361.958 362.248 362.247C366.011 362.537 369.796 362.094 373.385 360.944C376.974 359.794 380.298 357.96 383.167 355.546C384.306 354.592 385.366 353.549 386.335 352.428C389.812 356.517 394.415 359.533 399.591 361.111C404.767 362.69 410.296 362.765 415.514 361.328C410.481 370.309 403.095 377.798 394.123 383.016C385.151 388.235 374.922 390.991 364.5 390.999V390.999Z" fill="#023E8A"/>
<path d="M342.654 312.166C346.675 312.166 349.936 308.958 349.936 305C349.936 301.042 346.675 297.834 342.654 297.834C338.632 297.834 335.371 301.042 335.371 305C335.371 308.958 338.632 312.166 342.654 312.166Z" fill="#023E8A"/>
</g>
<path d="M24.268 119.298C23.9387 105.985 19.0106 95.2298 30.7812 82.7265C42.5518 70.2233 58.7197 66.3251 66.8931 74.0197C75.0666 81.7142 67.6158 96.0104 60.3799 110.591C36.8771 157.949 25.0047 149.086 24.268 119.298Z" fill="#00B2E3" fill-opacity="0.2118"/>
<path d="M672.935 556.342C664.311 562.108 658.562 570.219 647.31 566.689C636.058 563.159 629.288 552.803 632.188 543.559C635.088 534.315 646.385 533.902 657.813 533.212C694.929 530.973 692.23 543.441 672.935 556.342Z" fill="#00B2E3" fill-opacity="0.2118"/>
<defs>
<clipPath id="clip0">
<rect width="335" height="430" fill="white" transform="translate(197 90)"/>
</clipPath>
</defs>
</svg>
