<svg width="466" height="486" viewBox="0 0 466 486" fill="none" xmlns="http://www.w3.org/2000/svg">
<path d="M464.57 227.641C461.939 186.101 448.682 145.932 426.069 110.987C403.457 76.0411 372.247 47.4897 335.431 28.0696C298.615 8.64947 257.428 -0.988328 215.818 0.0800802C174.208 1.14849 133.57 12.8873 97.8 34.1712C61.4058 55.8874 31.289 86.7003 10.41 123.581L0 142.011L10.44 160.141L10.56 160.381L11.09 161.321C20.7748 178.725 27.2544 197.726 30.22 217.421C31.5143 225.89 32.1629 234.444 32.16 243.011C32.1766 272.064 24.6844 300.627 10.41 325.931L0.09 344.191L10.41 362.451C31.5691 399.961 62.3208 431.172 99.5137 452.884C136.707 474.596 179.003 486.029 222.07 486.011C253.981 486.011 285.58 479.726 315.062 467.514C344.544 455.302 371.332 437.403 393.897 414.838C416.462 392.273 434.361 365.485 446.573 336.003C458.785 306.521 465.07 274.922 465.07 243.011C465.07 237.771 464.9 232.631 464.57 227.641ZM427.63 254.911C427.56 255.981 427.48 257.061 427.4 258.131C381.78 228.851 347.6 225.831 324.26 228.941C277.76 235.061 260.26 267.371 199.19 269.671C187.29 270.161 165.65 270.961 140.36 262.901C112.69 254.061 105.85 242.721 81.5 235.731C77.3936 234.567 73.2189 233.658 69 233.011C68.64 225.861 67.93 218.841 66.89 211.911C63.2501 187.843 55.332 164.62 43.51 143.341C43.27 142.841 42.98 142.341 42.7 141.891C65.9915 100.644 102.781 68.6794 146.877 51.3769C190.973 34.0744 239.683 32.4903 284.81 46.8912C367.51 70.3312 427.6 141.391 427.6 225.381C427.6 226.951 427.6 228.501 427.55 230.051C427.84 234.331 427.96 238.651 427.96 243.051C428 247.011 427.84 251.011 427.63 254.911Z" fill="#023E8A"/>
</svg>
