<svg xmlns="http://www.w3.org/2000/svg" viewBox="0 0 1545.27 485.98"><defs><style>.cls-1{fill:#0096c7;}.cls-2{fill:#023e8a;}.cls-3{fill:#fff;}</style></defs><title>Asset 1</title><g id="Layer_2" data-name="Layer 2"><g id="Layer_1-2" data-name="Layer 1"><path class="cls-1" d="M1133.48,142.64c22.82,0,40.82,16.68,40.82,38.19,0,18.87-9.65,30.72-29.19,40.16l-2.19,1.1,27,27.65,13.61-13.17c2.85-3.07,5.93-3.07,9,0l8.78,8.78c2.41,2.85,2.63,4.83-.66,8.12l-14.27,13.83,26.56,27.87c3.73,4.17,3.07,6.59-3.29,6.59h-15.59c-5,0-7-.88-10.09-3.95l-14-14.27c-18.43,17.12-30.07,21.51-46.31,21.51-27.65,0-47.18-19.31-47.18-46.75,0-21.51,12.94-34.46,29-43-8.78-9.43-14.49-20-14.49-32.48C1090.9,162,1105.61,142.64,1133.48,142.64Zm-31.17,116.1c0,12.95,9.66,22.17,22.61,22.17,11.63,0,18.88-6.15,28.53-15.37l-31.82-32.7C1107.36,239.64,1102.31,248.42,1102.31,258.74Zm31.17-93.94c-12.07,0-18.66,8.56-18.66,18.22,0,7.68,3.3,12.95,11.86,21.73l7.9-4.17c10.09-4.83,15.8-9.44,15.8-19.54C1150.38,172.27,1143.14,164.8,1133.48,164.8Z"/><path class="cls-2" d="M694.37,196.16,664.23,298.49c-1.35,4.95-4.27,6.3-9.45,6.3h-7.64c-5.4,0-8.1-1.35-9.67-6.3l-16.42-57.57c-2.93-10.8-3.83-22.27-4-23.17h-1.13c-.22.9-1.34,12.37-4.27,23.17l-16.42,57.57c-1.35,4.95-4.27,6.3-9.44,6.3h-7.42c-5.18,0-8.1-1.35-9.45-6.3L539,196.16c-2-6.52-1.13-8.1,5.62-8.1h8.77c8.32,0,11.25,1.13,12.37,7l12.82,50.37c2,9.9,3.37,26.32,3.82,27.44h1.13c.22-1.12,1.8-17.09,4.72-27.66l14.84-49.25c1.8-6.08,3.15-7.2,11.48-7.2h5.17c8.32,0,9.67,1.12,11.47,7l15.07,49.48c3.37,11.47,4.5,26.54,4.72,27.66h1.35c.22-1.12.9-14.84,3.82-27.66L668.5,195c1.35-5.85,4-7,12.6-7h7.42C695.27,188.06,696.17,189.64,694.37,196.16Z"/><path class="cls-2" d="M754.86,184.69c36.89,0,48.13,19.79,48.13,46.33v58.25c0,7.87-1.8,10.12-8.09,12.82-8.32,3.6-22,5.85-40.49,5.85-39.8,0-50.15-13.05-50.15-36.44,0-27,15.07-36.21,51-36.21,8.77,0,17.77.9,21.59,1.13v-6.3c0-14.17-5.62-22.26-22.49-22.26-11.24,0-18.89,3.59-23.61,10.79-3.15,4.72-4.5,5.4-9.67,3.37l-9-3.82c-5-2.25-6.52-4.95-3.82-10.12C716,193.46,731.47,184.69,754.86,184.69Zm-2.47,72c-17.09,0-21.59,5.4-21.59,14.62s3.6,15.07,21.14,15.07c11.47,0,18.44-.9,22.49-1.8,1.8-.68,2.47-1.13,2.47-3.15V257.78C772.18,257.56,761.16,256.66,752.39,256.66Z"/><path class="cls-2" d="M868.89,184.69c26.09,0,40.93,9.45,48.13,24.07,2.7,5.17,1.35,7.87-3.6,10.12l-10.12,4c-4.95,2.25-6.52,1.58-9.45-3.14-3.82-6.75-9.89-11.7-24.29-11.7-14.62,0-21.14,4-21.14,12.15,0,10.57,9,12.37,26.32,13.94,26.76,2.7,45.88,8.77,45.88,36.21,0,22-16.65,37.56-48.58,37.56-26.54,0-43.41-9.67-50.16-27.22-1.8-4.72-.67-7.64,4.5-9.44l10.12-3.15c4.5-1.57,7-.9,9.22,4.27,3.6,8.78,11.7,12.37,25.42,12.37,16,0,23.84-4.49,23.84-13.27,0-10.57-8.77-12.59-27-14.39-22-2.25-45.43-7-45.43-36.21C822.56,199.53,837.85,184.69,868.89,184.69Z"/><path class="cls-2" d="M966.49,145.11v42.73c2-1.13,13.72-3.15,27-3.15,32.17,0,46.78,16.64,46.78,45.21v67.69c0,5.18-1.8,7-7,7h-12.14c-5.18,0-7-1.8-7-7v-67c0-14.39-8.54-22-24.51-22-11,0-20.92,2.25-23.17,3.37v85.69c0,5.18-1.57,7-6.74,7H947.38c-5.18,0-7-1.8-7-7V145.11c0-5.18,1.79-7,7-7h12.37C964.92,138.13,966.49,139.93,966.49,145.11Z"/><path class="cls-2" d="M1288.89,184.08c11,0,20.46,1.8,26.76,2.93V144.5c0-5.17,1.57-7,6.75-7h12.37c5.17,0,7,1.8,7,7V287.76c0,7.43-1.8,9.45-9,12.37-9,3.38-21.59,7.2-42.06,7.2-33.51,0-48.8-16.64-48.8-45.43V231.09C1241.88,200.72,1257.62,184.08,1288.89,184.08Zm4.94,23.84c-17.76,0-25.86,7.87-25.86,23.84V261c0,14.62,8.77,22.49,25.19,22.49a78,78,0,0,0,20.69-2.47c1.57-.68,1.8-1.13,1.8-2.48V210.85C1310.48,209.72,1302.83,207.92,1293.83,207.92Z"/><path class="cls-2" d="M1424.72,184.08c5.18,0,7,1.58,7,7V201c0,5.17-1.8,7-7,7h-8.09c-8.77,0-15.52.9-21.37,2.7-2,.45-2.25,1.57-2.25,2.7V297c0,5.18-1.57,7-6.74,7H1373.9c-5.18,0-7-1.8-7-7V203.65c0-7.2,1.58-9.9,8.77-12.82,8.33-3.15,21.82-6.3,41.84-6.75Z"/><path class="cls-2" d="M1545.27,194.2V307.78c0,29.46-14.17,49-49.48,49-24.29,0-38.68-8.32-46.78-21.59-3.15-5-2.47-8.55,2.92-11.25l8.55-4.72c5.4-2.7,7.87-2,11.25,2.7,4.72,7.42,11.47,11.47,23.61,11.47,15.74,0,23.84-8.32,23.84-24.29V298.56a118.09,118.09,0,0,1-26.76,3.15c-32.16,0-47-16.87-47-45.21V194.2c0-5.17,1.8-6.74,7-6.74h12.37c5.18,0,6.75,1.57,6.75,6.74v61.4c0,15.07,8.1,22.27,24.52,22.27a90.08,90.08,0,0,0,23.16-3.15V194.2c0-5.17,1.8-6.74,7-6.74h12.15C1543.47,187.46,1545.27,189,1545.27,194.2Z"/><path class="cls-2" d="M464.57,227.63A243,243,0,0,0,97.8,34.16a244.23,244.23,0,0,0-87.39,89.41L0,142l10.44,18.13.12.24.53.94a166.29,166.29,0,0,1,19.13,56.1A169,169,0,0,1,32.16,243a168.57,168.57,0,0,1-21.75,82.92L.09,344.18l10.32,18.26A242.9,242.9,0,0,0,222.07,486a243,243,0,0,0,243-243C465.07,237.76,464.9,232.62,464.57,227.63ZM427.63,254.9c-.07,1.07-.15,2.15-.23,3.22-45.62-29.28-79.8-32.3-103.14-29.19-46.5,6.12-64,38.43-125.07,40.73-11.9.49-33.54,1.29-58.83-6.77-27.67-8.84-34.51-20.18-58.86-27.17A103.14,103.14,0,0,0,69,233c-.36-7.15-1.07-14.17-2.11-21.1a204,204,0,0,0-23.38-68.57c-.24-.5-.53-1-.81-1.45a206.09,206.09,0,0,1,242.11-95C367.51,70.32,427.6,141.38,427.6,225.37c0,1.57,0,3.12-.05,4.67.29,4.28.41,8.6.41,13C428,247,427.84,251,427.63,254.9Z"/><path class="cls-3" d="M428,243c0,4-.12,8-.33,11.9-.07,1.07-.15,2.15-.23,3.22-45.62-29.28-79.8-32.3-103.14-29.19-46.5,6.12-64,38.43-125.07,40.73-11.9.49-33.54,1.29-58.83-6.77-27.67-8.84-34.51-20.18-58.86-27.17A103.14,103.14,0,0,0,69,233c-.36-7.15-1.07-14.17-2.11-21.1a204,204,0,0,0-23.38-68.57c-.24-.5-.53-1-.81-1.45a206.09,206.09,0,0,1,242.11-95C367.51,70.32,427.6,141.38,427.6,225.37c0,1.57,0,3.12-.05,4.67C427.84,234.32,428,238.64,428,243Z"/></g></g></svg>